<mxfile host="app.diagrams.net" modified="2023-10-19T06:55:43.371Z" agent="Mozilla/5.0 (Macintosh; Intel Mac OS X 10_15_7) AppleWebKit/537.36 (KHTML, like Gecko) Chrome/117.0.0.0 Safari/537.36" etag="EXah1YN7jocdpHRTictY" version="22.0.5" type="github">
  <diagram name="第 1 页" id="4o4zWSQC1kRZTBX6V81B">
    <mxGraphModel dx="373" dy="163" grid="0" gridSize="10" guides="1" tooltips="1" connect="1" arrows="1" fold="1" page="0" pageScale="1" pageWidth="827" pageHeight="1169" math="0" shadow="0">
      <root>
        <mxCell id="0" />
        <mxCell id="1" parent="0" />
        <mxCell id="Md7xWljdAO7b6Q15bc3s-1" value="" style="shape=image;verticalLabelPosition=bottom;labelBackgroundColor=default;verticalAlign=top;aspect=fixed;imageAspect=0;image=data:image/png,iVBORw0KGgoAAAANSUhEUgAABNYAAALmCAIAAAABvY5/AAAKpGlDQ1BJQ0MgUHJvZmlsZQAASImVlgdQU+kWgP9700NCC11K6E2QTgApoYfem6iEJCShxJAQQOzI4gqsBRURUFdwVUTBtQCyFgQVC4uAvS7IIqCsiwUbKHuBIey+N++9eSfz53xz7vlPufP/dw4AZBJTKEyH5QHIEGSJIvw8qXHxCVTcECAiP0XgAoyYLLGQHhYWBBCZ0/+UD/cANK1vW0zH+vfn/1UU2BwxCwAoDOFktpiVgfBpZL1gCUVZAKCqELt+TpZwmlsRVhIhBSJ8Z5q5szw8zcmzPDnjExXhBQAa6QpPYjJFXABImoidms3iInFIixG2ErD5AoSn63XLyFjBRvgYwiaIjxDh6fi05L/F4f4jZrI0JpPJlfJsLzOC9+aLhenMlf/n6/jfkpEumcthhCwST+QfgWhZ5J09SFsRKGVBckjoHPPZM/4zzJP4R88xS+yVMMdspnegdG96SNAcp/B9GdI4WYyoOeaIfSLnWLQiQporReRFn2OmaD6vJC1aaudxGNL4ebyo2DnO5seEzLE4LTJw3sdLahdJIqT1cwR+nvN5faW9Z4j/1i+fId2bxYvyl/bOnK+fI6DPxxTHSWtjc7x95n2ipf7CLE9pLmF6mNSfk+4ntYuzI6V7s5ADOb83TPoOU5kBYXMMgkAksAU2gA4cgRUAWZzcrOkmvFYIV4r4XF4WlY7cLg6VIWBZLqTaWNnYAjB9V2ePwrsHM3cQUsHP28TIuXRyQIyEeVuiCwCNy5GUo/M2YzsA5FMBaHdkSUTZszb09B8G+QbIASWgDrSBPjABFkh1Dsg3wQP4gAAQCqJAPFgGWIAHMoAI5IDVYAMoBMVgG9gFKsB+UAOOgOPgJGgC58AlcBXcBN3gLngM+sAgeAXGwAcwAUEQDiJDFEgd0oEMIXPIBqJBbpAPFARFQPFQEsSFBJAEWg1thIqhUqgCOgDVQj9DZ6FL0HWoB3oI9UMj0FvoC4yCSbASrAUbwYtgGkyHA+EoeCnMhTPhPLgA3gKXw9XwMbgRvgTfhO/CffAreBwFUDIoFZQuygJFQ3mhQlEJqBSUCLUWVYQqQ1Wj6lEtqA7UbVQfahT1GY1FU9BUtAXaBe2Pjkaz0JnotegSdAX6CLoRfRl9G92PHkN/w5AxmhhzjDOGgYnDcDE5mEJMGeYQ5gzmCuYuZhDzAYvFqmCNsY5Yf2w8NhW7CluC3YttwLZie7AD2HEcDqeOM8e54kJxTFwWrhC3B3cMdxHXixvEfcLL4HXwNnhffAJegM/Hl+GP4i/ge/FD+AmCPMGQ4EwIJbAJKwlbCQcJLYRbhEHCBFGBaEx0JUYRU4kbiOXEeuIV4hPiOxkZGT0ZJ5lwGb7MeplymRMy12T6ZT6TFElmJC9SIklC2kI6TGolPSS9I5PJRmQPcgI5i7yFXEtuJz8jf5KlyFrKMmTZsutkK2UbZXtlX8sR5Azl6HLL5PLkyuROyd2SG5UnyBvJe8kz5dfKV8qflb8vP65AUbBWCFXIUChROKpwXWFYEadopOijyFYsUKxRbFccoKAo+hQvCouykXKQcoUyqIRVMlZiKKUqFSsdV+pSGlNWVLZTjlHOVa5UPq/cp4JSMVJhqKSrbFU5qXJP5YuqlipdlaO6WbVetVf1o9oCNQ81jlqRWoPaXbUv6lR1H/U09e3qTepPNdAaZhrhGjka+zSuaIwuUFrgsoC1oGjByQWPNGFNM80IzVWaNZqdmuNa2lp+WkKtPVrtWqPaKtoe2qnaO7UvaI/oUHTcdPg6O3Uu6rykKlPp1HRqOfUydUxXU9dfV6J7QLdLd0LPWC9aL1+vQe+pPlGfpp+iv1O/TX/MQMcg2GC1QZ3BI0OCIc2QZ7jbsMPwo5GxUazRJqMmo2FjNWOGcZ5xnfETE7KJu0mmSbXJHVOsKc00zXSvabcZbGZvxjOrNLtlDps7mPPN95r3LMQsdFooWFi98L4FyYJukW1RZ9FvqWIZZJlv2WT5epHBooRF2xd1LPpmZW+VbnXQ6rG1onWAdb51i/VbGzMblk2lzR1bsq2v7TrbZts3duZ2HLt9dg/sKfbB9pvs2+y/Ojg6iBzqHUYcDRyTHKsc79OUaGG0Eto1J4yTp9M6p3NOn50dnLOcTzr/6WLhkuZy1GV4sfFizuKDiwdc9VyZrgdc+9yobkluP7r1ueu6M92r3Z976HuwPQ55DNFN6an0Y/TXnlaeIs8znh+9nL3WeLV6o7z9vIu8u3wUfaJ9Knye+er5cn3rfMf87P1W+bX6Y/wD/bf732doMViMWsZYgGPAmoDLgaTAyMCKwOdBZkGioJZgODggeEfwkxDDEEFIUygIZYTuCH0aZhyWGfZLODY8LLwy/EWEdcTqiI5ISuTyyKORH6I8o7ZGPY42iZZEt8XIxSTG1MZ8jPWOLY3ti1sUtybuZrxGPD++OQGXEJNwKGF8ic+SXUsGE+0TCxPvLTVemrv0+jKNZenLzi+XW85cfioJkxSbdDRpkhnKrGaOJzOSq5LHWF6s3axXbA/2TvYIx5VTyhlKcU0pTRnmunJ3cEd47rwy3ijfi1/Bf5Pqn7o/9WNaaNrhtKn02PSGDHxGUsZZgaIgTXB5hfaK3BU9QnNhobAv0zlzV+aYKFB0SAyJl4qbs5SQoahTYiL5TtKf7ZZdmf0pJybnVK5CriC3c6XZys0rh/J8835ahV7FWtW2Wnf1htX9a+hrDqyF1iavbVunv65g3eB6v/VHNhA3pG34Nd8qvzT//cbYjS0FWgXrCwa+8/uurlC2UFR4f5PLpv3fo7/nf9+12Xbzns3fithFN4qtisuKJ0tYJTd+sP6h/IepLSlburY6bN23DbtNsO3edvftR0oVSvNKB3YE72jcSd1ZtPP9ruW7rpfZle3fTdwt2d1XHlTevMdgz7Y9kxW8iruVnpUNVZpVm6s+7mXv7d3nsa9+v9b+4v1ffuT/+OCA34HGaqPqshpsTXbNi4MxBzt+ov1Ue0jjUPGhr4cFh/uORBy5XOtYW3tU8+jWOrhOUjdyLPFY93Hv4831FvUHGlQaik+AE5ITL39O+vneycCTbadop+pPG56uOkM5U9QINa5sHGviNfU1xzf3nA0429bi0nLmF8tfDp/TPVd5Xvn81gvECwUXpi7mXRxvFbaOXuJeGmhb3va4Pa79zuXwy11XAq9cu+p7tb2D3nHxmuu1c9edr5+9QbvRdNPhZmOnfeeZX+1/PdPl0NV4y/FWc7dTd0vP4p4Lve69l2573756h3Hn5t2Quz33ou89uJ94v+8B+8Hww/SHbx5lP5p4vP4J5knRU/mnZc80n1X/ZvpbQ59D3/l+7/7O55HPHw+wBl79Lv59crDgBflF2ZDOUO2wzfC5Ed+R7pdLXg6+Er6aGC38Q+GPqtcmr0//6fFn51jc2OAb0ZuptyXv1N8dfm/3vm08bPzZh4wPEx+LPql/OvKZ9rnjS+yXoYmcSdxk+VfTry3fAr89mcqYmhIyRcyZUQCFLDglBYC3hwEgxwNA6QaAuGR2lp4RaHb+nyHwn3h23p4RZCapRVTUegCCWgGoQZYRwnIeAIQhK8oDwLa20jU3987M6NMSZAFAJsfKx9ruSftcyHmZnd//Vve/aiCN+g/9F4YiAfu+EjnSAAAAOGVYSWZNTQAqAAAACAABh2kABAAAAAEAAAAaAAAAAAACoAIABAAAAAEAAATWoAMABAAAAAEAAALmAAAAANZ3mSwAAEAASURBVHgB7d1Ljm3XdSbqI0uCAbtGA2IHpKLKaoBdcSJb4D6k6m6B6m6EmqBbudkAl1mUOyACYiGBvIBgibyb3OcE40Tsx3rMxxhjfhcXZpzYa83HN2ZErrH+Q+on33333Qf/HwECBAgQIECAAAECBAgQ6C/wd/2nMAMBAgQIECBAgAABAgQIEPheQAvqHBAgQIAAAQIECBAgQIDAIAEt6CBo0xAgQIAAAQIECBAgQICAFtQZIECAAAECBAgQIECAAIFBAlrQQdCmIUCAAAECBAgQIECAAAEtqDNAgAABAgQIECBAgAABAoMEtKCDoE1DgAABAgQIECBAgAABAlpQZ4AAAQIECBAgQIAAAQIEBgloQQdBm4YAAQIECBAgQIAAAQIEtKDOAAECBAgQIECAAAECBAgMEtCCDoI2DQECv/9//vLVH//GgQABAgQCCvzv//zvgKuyJAIESgpoQUuW1aYIRBT4/R/+culCI67MmggQILC2wFf/9bc/ffPt1998uzaD3RMgMEhACzoI2jQEFhe4Np9f/fGvgtDFT4LtEyAQUODyy/myKr+fA5bGkgiUFNCCliyrTREIJ3CJQK9rEoSGq40FESCwtsAlAr0CCELXPgh2T2CcgBZ0nLWZCCwr8LrtFIQuewxsnACBmALXCPS6NkFozBpZFYFiAlrQYgW1HQIRBV4i0OviXnekEZdrTQQIEFhG4CUCve5YELpM5W2UwEwBLehMfXMTWEHgfcMpCF2h7vZIgEB8gUv/+ToCvS5YEBq/cFZIILuAFjR7Ba2fQHSBNxHodbnv+9Lo27A+AgQIlBP4+s83/hO4gtBydbYhAuEEtKDhSmJBBCoJ3Gs1BaGVqmwvBAhkFLj+D7HcXLkg9CaLbxIg0EpAC9pK0jgECNwQuBmBXq+7153eGMW3CBAgQKC1wPu/gvsygyD0hcIXBAj0ENCC9lA1JgEC3ws8bjIFoU4JAQIEZgm8+a8QvV+GIPS9ie8QINBKQAvaStI4BAi8FXgQgV4vfdyjvh3OnwkQIECgkcCDCPQ6gyC0kbRhCBC4IaAFvYHiWwQInBfY0l4KQs87G4EAAQJ7BZ5GoNcBBaF7YV1PgMBGAS3oRiiXESCwT+BpBHodbkunum9iVxMgQIDAQ4GnEej1bkHoQ0UfEiBwXEALetzOnQQI3BPY3lgKQu8Z+j4BAgR6CGyMQK9TC0J7lMCYBAhoQZ0BAgTaC2yMQK8Tb+9X2y/UiAQIEFhMYGMEelURhC52OmyXwCABLeggaNMQWEdgb0spCF3nbNgpAQJzBXZFoNelCkLnlszsBEoKaEFLltWmCMwU2BWBXhe6t2uduT1zEyBAIK3Argj0uktBaNpqWziBuAJa0Li1sTICGQWONZOC0Iy1tmYCBHIJHIhArxsUhOYqtNUSiC+gBY1fIyskkEngQAR63d6x3jUTjbUSIEBgqsCBCPS6XkHo1LqZnEBBAS1owaLaEoFZAmfaSEHorKqZlwCBFQQOR6BXnD99890KSvZIgMAYAS3oGGezEFhC4HAEetU508Eu4WuTBAgQOCpwOAK9Tnjy9qOrdh8BAjUFtKA162pXBMYLnG8gBaHjq2ZGAgRWEDgZgV6JmgyygrY9EiDwVEAL+pTIBQQIbBI4GYFe5zjfx25aq4sIECCwkkCTDLPJICup2ysBAncFtKB3aXxAgMB2gVatoyB0u7krCRAgsEWgYXrZcKgtK3cNAQJVBbSgVStrXwSGCjSJQK8rbtXNDt2/yQgQIBBVoGF62XCoqFrWRYDACAEt6AhlcxCoLdC2aRSE1j4tdkeAwEiB5rll8wFHapiLAIEgAlrQIIWwDAKJBRpGoFeFtj1tYllLJ0CAwDmB5rll8wHP7c/dBAikFNCCpiybRROII9CjXRSExqmvlRAgkFegU2LZadi8zlZOgMBeAS3oXjHXEyDwmUDzCPQ6eo/O9rN1+wMBAgSqC3RKLDsNW70a9keAwI8CWtAfLXxFgMBegX6NoiB0by1cT4AAgdcCXbPKroO/3oWvCRAoKaAFLVlWmyIwSKBTBHpdfb/+dpCOaQgQIDBPoGtW2XXweWZmJkBgkIAWdBC0aQjUE+jdIgpC650ZOyJAYIzAgJRywBRjrMxCgMB4AS3oeHMzEigi0DUCvRr17nKLVMI2CBAg8LnAgJRywBSf78mfCBCoI6AFrVNLOyEwUmBMcygIHVlTcxEgUENgWD45bKIadbELAgReBLSgLxS+IEBgh8CACPS6mjG97o6du5QAAQKxBYblk8Mmiu1tdQQI7BbQgu4mcwMBAiPbQkGo80aAAIHtAoOTycHTbXdwJQECkQW0oJGrY20EggoMi0Cv+x/Z8QYVtywCBAhsExicTA6ebpuBqwgQiC6gBY1eIesjEE1gfEMoCI12BqyHAIGYAlMyySmTxvS3KgIENgpoQTdCuYwAgY8CgyPQ66zj+171JkCAQDqBKZnklEnTlcaCCRB4LaAFfa3hawIEngjMagUFoU8K42MCBJYXmJhGTpx6+bIDIJBSQAuasmwWTWCWwJQI9LrZWd3vLGrzEiBAYJfAxDRy4tS7iFxMgEAQAS1okEJYBoEEAnObQEFogiNiiQQITBKYnkNOX8AkeNMSIHBEQAt6RM09BAhMEZjbA0/ZskkJECCwRWB6Djl9AVuUXEOAQBABLWiQQlgGgegCl/Zv4t/CveoIQqOfEusjQGCGQJAEMsgyZlTAnAQI7BPQgu7zcjUBAnMFBKFz/c1OgEBAgSAJZJBlBCyQJREg8EZAC/oGxB8JELghECECvS5LEHqjPL5FgMDCAqGyx1CLWfhQ2DqB6AJa0OgVsj4CBN4ICELfgPgjAQIrC4TKHkMtZuVTYe8EggtoQYMXyPIIzBeIE4FeLQSh88+EFRAgEEMgYOoYcEkxamUVBAj8KKAF/dHCVwQIZBEQhGaplHUSINBVIGDqGHBJXUtgcAIEDghoQQ+guYXAQgLRItArvSB0oSNoqwQI3BEImzeGXdgdSN8mQGC0gBZ0tLj5CBBoIiAIbcJoEAIE8gqEzRvDLixvra2cQDEBLWixgtoOgZYCMSPQ6w4FoS0rbSwCBLIJBE8agy8vW7Wtl0A1AS1otYraD4F1BASh69TaTgkQeCMQPGkMvrw3mP5IgMBgAS3oYHDTEUgjEDkCvSIKQtMcJgslQKCpQIqMMcUim5bFYAQIbBXQgm6Vch0BAgEFBKEBi2JJBAj0FkiRMaZYZO9KGZ8AgZsCWtCbLL5JYHWB+BHotUKC0NVPqv0TWE8gUbqYaKnrnSM7JjBTQAs6U9/cBAicFxCEnjc0AgECiQQSpYuJlproAFgqgQICWtACRbQFAo0FskSg120LQhuX33AECAQWSJcrpltw4OJbGoE6AlrQOrW0EwLLCghCly29jRNYTSBdrphuwaudKPslMEVACzqF3aQE4grkikCvjoLQuOfJyggQaCeQNFFMuux2dTMSAQJvBbSgb0X8mQCBjAKC0IxVs2YCBHYJJE0Uky57V2lcTIDALgEt6C4uFxMoLpAxAr2WRBBa/GjaHoHlBVJniakXv/zRA0CgvYAWtL2pEQkQmCIgCJ3CblICBMYIpM4SUy9+TH3NQmApAS3oUuW2WQKPBPJGoNddCUIfVddnBAhkFiiQIhbYQuYTZO0EYgloQWPVw2oIEDgjIAg9o+deAgTCChRIEQtsIezxsDAC6QS0oOlKZsEEughkj0CvKILQLofDoAQITBUokx+W2cjU42ByAhUEtKAVqmgPBAi8CAhCXyh8QYBADYGv//xtjY0IQmvU0S4InBfQgp43NAKB9AI1ItBrGQSh6Y+jDRAg8Ergkhz+6ZsiLehlW4LQV7X1JYF1BbSg69bezglUFRCEVq2sfREgkF1AEJq9gtZPoImAFrQJo0EIJBaoFIFeyyAITXwcLZ0AgVcCl8ywXs8mCH1VYV8SWFRAC7po4W2bQG0BQWjt+todAQJ5Beo11XlrYeUEZgloQWfJm5dACIF6EeiVVRAa4nhZBAECJwRKRqBXD0HoiXPhVgIVBLSgFapoDwQIvBcQhL438R0CBAhEEBCERqiCNRCYKKAFnYhvagKTBapGoFdWQejk42V6AgROCBSOQK8qgtATp8OtBNILaEHTl9AGCBC4JyAIvSfj+wQIEJgrIAid6292AnMFtKBz/c1OYJpA7Qj0yioInXa8TEyAwAmB8hHo1UYQeuKMuJVAbgEtaO76WT0BAo8FBKGPfXxKgACBWQKC0Fny5iUwXUALOr0EFkBggsAKEeiVVRA64XiZkgCBEwKLRKBXIUHoiZPiVgKJBbSgiYtn6QQIbBEQhG5Rcg0BAgTGCwhCx5ubkUAEAS1ohCpYA4GhAutEoFdWQejQ42UyAgROCCwVgV6dBKEnzotbCWQV0IJmrZx1EyCwXUAQut3KlQQIEBgpIAgdqW0uAkEEtKBBCmEZBAYJrBaBXlkFoYOOl2kIEDghsGAEetUShJ44NW4lkFJAC5qybBZNgMBeAUHoXjHXEyBAYIyAIHSMs1kIxBHQgsaphZUQ6C6wZgR6ZRWEdj9eJiBA4ITAshHo1UwQeuLsuJVAPgEtaL6aWTEBAscEBKHH3NxFgACB3gKC0N7CxicQSkALGqocFkOgo8DKEeiVVRDa8XgZmgCBEwKLR6BXOUHoiRPkVgLJBLSgyQpmuQQInBEQhJ7Rcy8BAgT6CQhC+9kamUA0AS1otIpYD4EuAiLQK6sgtMvxMigBAicERKAveILQFwpfEKgtoAWtXV+7I0DgrYAg9K2IPxMgQCCGgCA0Rh2sgkB3AS1od2ITEJguIAJ9XQJB6GsNXxMgMFdABPrGXxD6BsQfCZQU0IKWLKtNESDwSEAQ+kjHZwQIEJgnIAidZ29mAuMEtKDjrM1EYIqACPQ9uyD0vYnvECAwXkAEetNcEHqTxTcJVBLQglaqpr0QILBVQBC6Vcp1BAgQGCsgCB3rbTYCEwS0oBPQTUlgmIAI9B61IPSejO8TIDBGQAT6wFkQ+gDHRwQKCGhBCxTRFggQOCIgCD2i5h4CBAj0FxCE9jc2A4GZAlrQmfrmJtBVQAT6mFcQ+tjHpwQI9BMQgT61FYQ+JXIBgbwCWtC8tbNyAgTOCghCzwq6nwABAn0EBKF9XI1KIISAFjREGSyCQHMBEegWUkHoFiXXECDQVkAEutFTELoRymUE0gloQdOVzIIJEGgpIAhtqWksAgQItBMQhLazNBKBWAJa0Fj1sBoCTQREoNsZBaHbrVxJgMB5ARHoLsOvv/l21/UuJkAghYAWNEWZLJIAgY4CgtCOuIYmQIDACYGv/vi3E3e7lQCBoAJa0KCFsSwChwVEoHvpBKF7xVxPgMAxARHoXrc/ffOtIHQvmusJxBfQgsavkRUSINBdQBDandgEBAgQOCQgCD3E5iYCoQW0oKHLY3EE9gqIQPeKXa8XhB5zcxcBAtsFRKDbrV5fKQh9reFrAjUEtKA16mgXBAicFRCEnhV0PwECBPoICEL7uBqVwDQBLeg0ehMTaC4gAj1DKgg9o+deAgQeC4hAH/s8/lQQ+tjHpwTSCWhB05XMggkQ6CUgCO0la1wCBAicExCEnvNzN4FYAlrQWPWwGgKHBUSgh+lebhSEvlD4ggCBhgIi0POYgtDzhkYgEEdACxqnFlZCgMB8AUHo/BpYAQECBG4JCEJvqfgegZQCWtCUZbNoAm8ERKBvQA7/URB6mM6NBAjcFBCB3mQ58E1B6AE0txCIKaAFjVkXqyJAYJqAIHQavYkJECDwUEAQ+pDHhwTSCGhB05TKQgncExCB3pM59n1B6DE3dxEgcFPg8ivl5vd984CAIPQAmlsIBBTQggYsiiURIDBZQBA6uQCmJ1BF4PK3cKtsJco+BKFRKmEdBE4IaEFP4LmVQAABEWiPIkgteqgak8CCAn6ZNC+6ILQ5qQEJjBfQgo43NyMBAgkEBKEJimSJBGILiEA71UcQ2gnWsASGCWhBh1GbiEB7ARFoe9NPI/7+D3/59KV/EiBA4IiACPSI2oZ7BKEbkFxCILSAFjR0eSyOAIGJAoLQifimJpBdQATatYKC0K68BifQW0AL2lvY+AR6CYhAe8l+GlcQ+knCPwkQ2C0gAt1NtucGQegeLdcSCCegBQ1XEgsiQCCOgCA0Ti2shEAiARHogGIJQgcgm4JAJwEtaCdYwxLoKyAC7ev7aXRB6CcJ/yRAYIeACHQH1tFLBaFH5dxHYL6AFnR+DayAAIHIAoLQyNWxNgIBBUSgw4oiCB1GbSICbQW0oG09jUZghIAIdITypzkEoZ8k/JMAgU0CItBNTC0uEoS2UDQGgQkCWtAJ6KYkQCCXgCA0V72slsBEARHoYHxB6GBw0xFoIqAFbcJoEALjBESg46w/zSQI/SThnwQIPBEQgT4Bav2xILS1qPEIjBDQgo5QNgcBAtkFBKHZK2j9BAYIiEAHIL+fQhD63sR3CAQX0IIGL5DlEfhMQAT6GcfAPwhCB2KbikBWARHolMoJQqewm5TAGQEt6Bk99xIgsJCAIHShYtsqgf0CItD9Zs3uEIQ2ozQQgSECWtAhzCYh0EJABNpC8fgYgtDjdu4ksICACHRikQWhE/FNTeCAgBb0AJpbCBBYVEAQumjhbZvAMwER6DOh7p8LQrsTm4BAOwEtaDtLIxHoKSAC7am7dWxB6FYp1xFYTEAEOr3ggtDpJbAAAtsFtKDbrVxJgACBD4JQh4AAgTcCItA3ILP+KAidJW9eAnsFtKB7xVxPYIKACHQC+p0pBaF3YHybwLoCItAgtReEBimEZRB4KqAFfUrkAgIECHwmIAj9jMMfCKwtIAINVX9BaKhyWAyBewJa0Hsyvk8gioAINEolPq1DEPpJwj8JEPggAg11CAShocphMQTuCWhB78n4PgECBO4KCELv0viAwEoCItCA1RaEBiyKJRF4I6AFfQPijwRiCYhAY9Xj02oEoZ8k/JPA0gIi0IDlF4QGLIolEXgjoAV9A+KPBAgQ2CQgCN3E5CICdQVEoGFrKwgNWxoLI3AV0II6CQTiCohA49bmwwdBaOTqWBuBAQIi0AHIx6YQhB5zcxeBYQJa0GHUJiJAoJqAILRaRe2HwGYBEehmqjkXCkLnuJuVwDYBLeg2J1cRGC4gAh1OvntCQehuMjcQqCIgAg1eSUFo8AJZ3uICWtDFD4DtEyBwSkAQeorPzQRyCohAU9RNEJqiTBa5poAWdM2623V0ARFo9Ap9Wp8g9JOEfxJYSEAEmqLYgtAUZbLINQW0oGvW3a4JEGgmIAhtRmkgAhkERKAZqvRxjYLQRMWy1KUEtKBLldtmcwiIQHPU6dMqBaGfJPyTwBICItBEZRaEJiqWpS4loAVdqtw2S4BAFwFBaBdWgxKIJyACjVeTJysShD4B8jGBGQJa0Bnq5iRwX0AEet8m7ieC0Li1sTICTQVEoE05RwwmCB2hbA4COwW0oDvBXE6AAIFbAoLQWyq+R6CUgAg0aTkFoUkLZ9mFBbSghYtra/kERKD5avZpxYLQTxL+SaCsgAg0aWkFoUkLZ9mFBbSghYtrawQIDBUQhA7lNhmBsQIi0LHejWcThDYGNRyBcwJa0HN+7ibQTkAE2s5yzkiC0DnuZiUwREAEOoS51ySC0F6yxiVwSEALeojNTQQIELglIAi9peJ7BNILiEDTl/DDB0FogSLaQhkBLWiZUtpIbgERaO76fVq9IPSThH8SKCUgAi1QTkFogSLaQhkBLWiZUtoIAQIhBAShIcpgEQTaCYhA21lOHkkQOrkApifwSUAL+knCPwnMExCBzrNvP7MgtL2pEQlMFRCBTuVvObkgtKWmsQicENCCnsBzKwECBG4JCEJvqfgegZQCItCUZbu/aEHofRufEBgnoAUdZ20mAjcFRKA3WVJ/UxCaunwWT+C1gAj0tUaBrwWhBYpoCwUEtKAFimgLBAiEExCEhiuJBRHYLyAC3W+W4A5BaIIiWWJ1AS1o9QrbX2wBEWjs+hxfnSD0uJ07CYQREIGGKUXLhQhCW2oai8AhAS3oITY3ESBA4JmAIPSZkM8JhBYQgYYuz7nFCULP+bmbwFkBLehZQfcTOCwgAj1Ml+JGQWiKMlkkgXsCItB7MgW+LwgtUERbSC2gBU1dPosnQCC0gCA0dHksjsB9ARHofZsinwhCixTSNnIKaEFz1s2q8wuIQPPX8PkOBKHPjVxBIKSACDRkWVouShDaUtNYBHYKaEF3grmcAAECewQEoXu0XEsghIAINEQZ+i9CENrf2AwEbgtoQW+7+C6BrgIi0K68oQYXhIYqh8UQ2CIgAt2iVOAaQWiBItpCUgEtaNLCWTYBAmkEBKFpSmWhBD58EIEudQoEoUuV22bjCGhB49TCSlYREIGuUulP+xSEfpLwTwIJBESgCYrUbomC0HaWRiKwQ0ALugPLpQQIEDgmIAg95uYuAoMFRKCDwSNMJwiNUAVrWE1AC7paxe13soAIdHIBJk0vCJ0Eb1oC+wREoPu8SlwtCC1RRptIJqAFTVYwyyVAIKmAIDRp4Sx7HQER6Dq1frNTQegbEH8k0FtAC9pb2PgEfhQQgf5osd5XgtD1am7HyQREoMkK1m65gtB2lkYisElAC7qJyUUECBA4LyAIPW9oBAKdBESgnWCzDCsIzVIp66whoAWtUUe7SCAgAk1QpM5LFIR2BjY8geMCItDjdiXuFISWKKNNpBHQgqYplYUSIFBAQBBaoIi2UE9ABFqvpgd2JAg9gOYWAscEtKDH3NxFYJ+ACHSfV92rBaF1a2tniQVEoImL127pgtB2lkYi8ERAC/oEyMcECBBoKyAIbetpNAInBUSgJwEr3S4IrVRNe4ksoAWNXB1rKyIgAi1SyEbbEIQ2gjQMgTYCItA2jiVGEYSWKKNNJBDQgiYokiUSIFBMQBBarKC2k1dABJq3dp1WLgjtBGtYAq8FtKCvNXxNoL2ACLS9af4RBaH5a2gHRQREoEUK2W4bgtB2lkYicFdAC3qXxgcECBDoJyAI7WdrZAIbBUSgG6FWu0wQulrF7Xe8gBZ0vLkZFxIQgS5U7J1bFYTuBHM5gfYCItD2piVGFISWKKNNhBbQgoYuj8URIFBYQBBauLi2Fl9ABBq/RhNXKAidiG/qFQS0oCtU2R7nCIhA57jnmdUjTp5aWWlBARFowaK225IgtJ2lkQjcENCC3kDxLQIECAwQuDwB60IHOJuCwHsBEeh7E995I+D38xsQfyTQUEAL2hDTUAR+FBCB/mjhq/sC/i7ufRufEOgoIALtiFtlaEFolUraR0QBLWjEqlgTAQKLCAhCFym0bYYSEIGGKkfkxQhCI1fH2lILaEFTl8/igwqIQIMWJuSyBKEhy2JRlQVEoJWr23RvgtCmnAYj8KOAFvRHC18RIEBgvIAgdLy5GVcWEIGuXP0DexeEHkBzC4GnAlrQp0QuILBPQAS6z8vVHz4IQp0CAsMERKDDqGtMJAitUUe7iCagBY1WEeshQGA5AUHociW34UkCItBJ8LmnFYTmrp/VhxTQgoYsi0WlFRCBpi3d5IULQicXwPRrCIhA16hz410KQhuDGo7Ahw9aUKeAAAEC8wUEofNrYAXVBUSg1SvccX+C0I64hl5SQAu6ZNltuo+ACLSP6yqjCkJXqbR9ThIQgU6CrzCtILRCFe0hkoAWNFI1rIUAgYUFBKELF9/WuwuIQLsTV59AEFq9wvY3VEALOpTbZIUFRKCFiztsa4LQYdQmWk1ABLpaxZvvVxDanNSAKwtoQVeuvr0TIBBLQBAaqx5WU0VABFqlkpP3IQidXADTFxLQghYqpq3MExCBzrOvNrMgtFpF7SeAgAg0QBEqLEEQWqGK9hBDQAsaow5WQYAAgR8EBKEOAoG2AiLQtp6LjyYIXfwA2H4rAS1oK0njrCsgAl239n12Lgjt42rURQVEoIsWvs+2BaF9XI26nIAWdLmS2zABAsEFBKHBC2R5iQREoImKlWWpgtAslbLOyAJa0MjVsbYEAiLQBEVKuERBaMKiWTIBAksICEKXKLNNdhbQgnYGNjwBAgT2CwhC95u5g8BbgUsE6m/hvkXx5xYCgtAWisZYWkALunT5bf6kgAj0JKDbHwgIQh/g+IgAAQITBQShE/FNXUNAC1qjjnZBgEA1AUFotYraz1gBEehY7+VmE4QuV3IbbiqgBW3KabCVBESgK1V7zl4FoXPczUqAAIFnAoLQZ0I+J/BIQAv6SMdnBAgQmCggCJ2Ib+rUAiLQ1OXLsnhBaJZKWWdAAS1owKJYUgIBEWiCIpVYoiC0RBltggCBggKC0IJFtaVRAlrQUdLmIUCAwH4BQeh+M3esLiACXf0EDNy/IHQgtqlKCWhBS5XTZsYIiEDHOJvlKiAIdRIIECAQU0AQGrMuVhVfQAsav0ZWSIDA0gKC0KXLb/M7BUSgO8FcflZAEHpW0P1LCmhBlyy7TZ8T+P0f/nJuAHcT2CcgCN3n5WoCBAiMEhCEjpI2TykBLWipctrMAAHNwABkU7wREIS+AfFHAvcELj8s9z7yfQKdBAShnWANW1hAC1q4uLbWRUAE2oXVoM8EvPt4JuRzAh8ufwuXAoHxAoLQ8eZmzC6gBc1eQesfKqANGMptslcCgtBXGL4kcFtABHrbxXf7CwhC+xuboZSAFrRUOW2mt4AItLew8R8IeAPyAMdHBESgzsBEgUsQOnF2UxNIJ6AFTVcyC54moAGYRm/iHwQEoQ4CgQcCItAHOD4aIOAlyABkU5QR0IKWKaWNdBcQgXYnNsEzAe9Bngn5fFEBT/+LFj7Str0EiVQNa4kuoAWNXiHrCyLg0T9IIRZfhiB08QNg+/cEPP3fk/H9kQJehYzUNldqAS1o6vJZ/DgBEeg4azM9FPA25CGPD1cU8Ny/YtVD7tmrkJBlsaiIAlrQiFWxpmgCHvqjVWTl9QhCV66+vd8U8Nx/k8U3pwh4ITKF3aTpBLSg6UpmwRMERKAT0E15X8A7kfs2PllOwBP/ciWPvWEvRGLXx+qiCGhBo1TCOsIKeNwPW5plFyYIXbb0Nv5ewBP/exPfmSvgtchcf7OnENCCpiiTRRIgQOAzAW9GPuPwh1UFPOuvWvnQ+/ZaJHR5LC6GgBY0Rh2sIqrA5UHf38KNWpyl1yUIXbr8Nv9JwLP+Jwn/jCXg5UiselhNPAEtaLyaWBEBAgQ2CAhCNyC5pLKAp/zK1U2+Ny9HkhfQ8rsLaEG7E5sgtYAINHX5ai9eEFq7vnb3VMBT/lMiF0wU8IpkIr6p4wtoQePXyAqnCUiZptGbeJuAI7rNyVUFBTzfFyxqrS15RVKrnnbTWEAL2hjUcJUERKCVqllyL4LQkmW1qS0Cnu+3KLlmroAXJXP9zR5ZQAsauTrWNlNAvjRT39ybBRzUzVQurCPgyb5OLUvvxIuS0uW1uVMCWtBTfG4mQIDAXAFB6Fx/s08R8GQ/hd2kBwS8LjmA5pYVBLSgK1TZHo8I+Fu4R9TcM0NAEDpD3ZzTBDzTT6M38X4Br0v2m7ljCQEt6BJltsm9Ap7p94q5fqKAIHQivqnHC3imH29uxjMCXpqc0XNvVQEtaNXK2tcpARHoKT43Dxfw0mQ4uQnnCHian+Nu1hMCXpqcwHNrWQEtaNnS2thhAU/zh+ncOEtAEDpL3ryDBTzNDwY3XRMBr06aMBqkkoAWtFI17YUAgXUFvDpZt/bL7Nxz/DKlrrZRr06qVdR+TgtoQU8TGqCcgL+FW66kS2xIELpEmdfepOf4teufe/deoOSun9W3FtCCthY1XnIBUVLyAi69fKd36fJX37wn+OoVLr4/L1CKF9j2dgpoQXeCuby6gAi0eoXL7u/Xv/rZv/3r35fdno0tL+AJfvkjkB7Aa5T0JbSBdgJa0HaWRsovIETKX8PldvB95/k//v53v/3Hy84vB9gZXu4ErLFhz+5r1Ln4Lr1GKV5g29sj8LM9F7uWAAECBEIIXDrPy9PM9f/+8Fjzl+uyLl/LQkNUyCKaCnh2b8ppsGkCl5cpv/7lT6dNb2ICYQS0oGFKYSExBC6B0sSFfPXHv02cfePUngUfQ13awpsXtHW7jnZzzEsQqgu9WQLfTCogAk1aOMt+L/D1n7/9oAV97+I76wncflRaz8GOCXz49//4/x4o3HzWf3C9j5YVmH5Uvn+R8a/L8ts4AQIE4gr86Ztvv/7m21984d+Di1sjKxsjoAUd42yW6AKX4Gh65xDdyPqSCFxO8qUL/fWv/F2vJAWzzIcClwg05i/nL3URDwt3/sNf/NPMPu3LL35yfgtGIEDgnsBPvvvuu3uf+T6BdQT+5//6P+ts1k7LC1z+MvDvfvsP5bdpgysIXCKjP33z3aULvZzqy79E5z+4tULRy+/RvytRvsQ2+FRg5hump4tzAYExAp5pxjibZZjANQgdNp2JCHQSuESg/+9//vc1Bb3+X9ljJ2rDjhTwrzeP1DZXTAEtaMy6WNVQAf9boEO5TTZEwIuVIcwmGSpweXD3N8yHipusj8Dlfcol3u8ztlEJ5BDQguaok1X2E/Ck3s/WyBMFBKET8U3dROD9vwV6OdWX/46LILQJr0HmCqT4D+DPJTJ7bQEtaO362t1zARHocyNX5BTweiVn3az6kYAg9JGOz/IIXP/TuHnWa6UEGgtoQRuDGi6XgGf0XPWy2l0CgtBdXC4OJfA+Ar0uTxAaqkwWc0ZAEHpGz73ZBbSg2Sto/acERKCn+NwcXsBLlvAlssDdAoLQ3WRuCCkgCA1ZFosaJKAFHQRtmoACns4DFsWS2goIQtt6Gm2MwL0I9Dr7NQgdsxKzEOgqIAjtymvwyAJa0MjVsba+AiLQvr5GjyHgVUuMOlhFS4HLf0308j8T2nJEYxGYISAInaFuzhACWtAQZbCI8QKey8ebm3GKgCB0CrtJzwhcDu3j2y/Z0a9/+dPH1/iUQAoBQWiKMllkcwEtaHNSA+YQEIHmqJNVthDwwqWFojEGCVz+Fu7Tma7Zkf91lqdQLogvIAiNXyMr7CGgBe2haszoAp7Io1fI+poKCEKbchqsr8DTCPQ6/fdB6K8EoX1rYfQxAoLQMc5mCSWgBQ1VDosZJCACHQRtmjACXruEKYWFPBLYEoFe779kR5cvBKGPNH2WREAQmqRQltlSQAvaUtNYKQQ8i6cok0W2FRCEtvU0WieBjRHodXZBaKcqGHa8gCB0vLkZ5wpoQef6m32CgAh0AropAwh4+RKgCJbwSGB7BHodRRD6SNNnqQQEoanKZbENBLSgDRANkUjAU3iiYllqWwFBaFtPozUX2BWBXmcXhDavggFnCQhCZ8mbd4qAFnQKu0mnCYhAp9GbOICAVzABimAJtwX2RqDXUQShtzV9N6GAIDRh0Sz5uIAW9LidO9MJeP5OVzILbisgCG3rabSGAgci0Ovsl+zoF//kYaZhKQw1TUAQOo3exMMF/NYeTm7CeQIi0Hn2Zo4i4EVMlEpYxyuBYxHodYBLdvTlFz95NZgvCWQVEIRmrZx17xfQgu43c0dOAU/eOetm1Y0FBKGNQQ3XQuBwBHqd/JId+V9naVEHY8wXEITOr4EVDBHQgg5hNkkAARFogCJYQggBr2NClMEiPgmciUCvY1yyI38X9xOnf+YWEITmrp/VbxbQgm6mcmFmAc/cmatn7Y0FBKGNQQ13TuBkBHqd/Os/X/46rkeac5VwdwwBQWiMOlhFXwG/r/v6Gj2IgAg0SCEsI4iAlzJBCmEZ5yPQq6Eg1FkqIyAILVNKG3kgoAV9gOOjIgKetosU0jbaCQhC21ka6ZRAkwj0ugJB6KlKuDmSgCA0UjWspYuAFrQLq0FDCYhAQ5XDYoIIeDUTpBArL6NVBHo1FISufJaK7V0QWqygtvNeQAv63sR3Sgl4zi5VTptpJyAIbWdppIMCDSPQ6woEoQcr4bZ4AoLQeDWxopYCWtCWmsYKKCACDVgUSwoi4AVNkEKsuYy2EejV8JIdrYlp1/UEBKH1ampHrwW0oK81fF1NwBN2tYraT1MBQWhTToPtE2gege6b3tUEwgsIQsOXyAKPC2hBj9u5M76ACDR+jaxwroDXNHP9l529RwR6xRSELnuo6m1cEFqvpnb0IqAFfaHwRTUBz9bVKmo/HQQEoR1QDflcQAT63MgVBD58EIQ6BVUFtKBVK2tfH0SgDgGBLQJe1mxRck1DgX4RaMNFGopABAFBaIQqWEMPAS1oD1VjzhfwVD2/BlaQREAQmqRQdZYpAq1TSzvpLyAI7W9shgkCWtAJ6KYcICACHYBsijICXtmUKWX8jYhA49fICkMJCEJDlcNiWgloQVtJGieQgOfpQMWwlAwCgtAMVSqyRhFokULaxkABQehAbFMNEtCCDoI2zTCBS/8pAh2mbaIyAl7clCll5I2IQCNXx9rCCghCw5bGwg4LaEEP07mRAAECdQQEoXVqGXgnItDAxbG00AKC0NDlsbj9AlrQ/WbuCCwgAg1cHEuLLiAIjV6h5OsTgSYvoOXPFBCEztQ3dwcBLWgHVEMSIEAgoYAgNGHRMi1ZBJqpWtYaT0AQGq8mVnRcQAt63M6d0QREoNEqYj3pBASh6UqWZcETI9Avv/Cok+WYWOcjAUHoIx2fZRPwezlbxayXAAEC3QQEod1oVx9YBLr6CbD/FgKC0BaKxgghoAUNUQaLOC8gAj1vaAQCFwFBqGPQXGBiBHrZyyU7EoQ2r6kBpwgIQqewm7SHgBa0h6oxCRAgkFVAEJq1coHXLQINXBxLSyYgCE1WMMu9I6AFvQPj26kERKCpymWx0QUEodErlGp9cyPQK5UgNNWRsdhHAoLQRzo+yyOgBc1TKyslQIDAEAFB6BDmVSYRga5SafscJSAIHSVtno4CWtCOuIYeIyACHeNslqUEBKFLlbvfZiNEoNfdXbKjfts0MoGRAoLQkdrm6iSgBe0Ea1gCBAgkFhCEJi5epKWHikD9R4kiHQ1rOSUgCD3F5+YAAlrQAEWwhBMCItATeG4l8EhAEPpIx2cbBOJEoBsW6xICmQQEoZmqZa23BLSgt1R8jwABAssLCEKXPwJnAUJFoJfNXJ7aBaFni+r+MAKC0DClsJAjAlrQI2ruCSIgAg1SCMuoKiAIrVrZAfsSgQ5ANsXKAoLQlatfYO9a0AJFXHcLv//DX9bdvJ0T6C8gCO1vXHaGaBHoFfry1F5W3MbWExCErlfzOjvWgtap5Wo7kc+sVnH7nSLgB20Ke/ZJRaDZK2j9KQQEoSnKZJE3BbSgN1l8M4GACDRBkSwxv4AgNH8NJ+wgZgQ6AcKUBDoLCEI7Axu+l4AWtJescbsKSGa68hqcwGsBP26vNXz9VEAE+pTIBQRaCQhCW0kaZ7CAFnQwuOnaCIhA2zgahcAGAUHoBiSX/CggAv3RwlcE+gsIQvsbm6G9gBa0vakRewvIZHoLG5/AGwE/dG9A/PGegAj0nozvE+gkIAjtBGvYrgJa0K68Bu8iIALtwmpQAvcFBKH3bXzymYAI9DMOfyAwREAQOoTZJC0FtKAtNY01QEAaMwDZFATeC/jRe2/iO28ERKBvQPyRwBgBQegYZ7M0FNCCNsQ01AgBEegIZXMQeCcgCH1H4htvBUSgb0X8mcAoAUHoKGnztBHQgrZxNMoYATnMGGezELgp4AfwJotvXgVEoE4CgYkCgtCJ+KY+IKAFPYDmlmkCItBp9CYm8OGDINQpeCAgAn2A4yMCAwQEoQOQTdFKQAvaStI43QUkMN2JTUDgmYAfw2dCi34uAl208LYdSUAQGqka1vJEQAv6BMjHcQREoHFqYSXLCghCly39442LQB/7+JTAGAFB6Bhns5wX0IKeNzTCCAHZywhlcxDYIOCHcQPSWpeIQNeqt90GFhCEBi6OpX0moAX9jMMfwgqIQMOWxsJWExCErlbxp/sVgT4lcgGBYQKC0GHUJjojoAU9o+feQQJSl0HQpiGwTcCP5DanJa4SgS5RZpvMIyAIzVOrpVeqBV26/Fk2LwLNUinrXERAELpIobdsUwS6Rck1BEYKCEJHapvrmIAW9Jibu8YJyFvGWZuJwGYBP5ibqSpfKAKtXF17SysgCE1buoUWrgVdqNhJtyoCTVo4y64tIAitXd+NuxOBboRyGYHBAoLQweCm2yugBd0r5vqhApKWodwmI7BHwI/nHq2C14pACxbVlqoICEKrVLLsPrSgZUtbY2Mi0Bp1tIuSAoLQkmXdvikR6HYrVxIYLyAIHW9uxu0CWtDtVq4cLSBjGS1uPgI7BfyQ7gSrc7kItE4t7aSogCC0aGGLbEsLWqSQJbchAi1ZVpuqJCAIrVTNXXsRge7icjGBKQKC0CnsJt0ioAXdouSaCQLSlQnopiSwX8CP6n6z9HeIQNOX0AbWEBCErlHnlLvUgqYs2wqLFoGuUGV7LCAgCC1QxL1bEIHuFXM9gVkCgtBZ8uZ9LKAFfezj0zkCcpU57mYlcEjAD+whtqw3iUCzVs66lxQQhC5Z9gSb1oImKNKCSxSBLlh0W84rIAjNW7sDKxeBHkBzC4GJAoLQifimviegBb0n4/vTBCQq0+hNTOCogB/bo3LJ7hOBJiuY5RL48EEQ6hQEFNCCBizK6ksSga5+Auw/oYAgNGHRjixZBHpEzT0EZgsIQmdXwPxvBbSgb0X8ea6ALGWuv9kJHBbww3uYLsuNItAslbJOAm8EBKFvQPxxuoAWdHoJLOAzARHoZxz+QCCPgCA0T60OrlQEehDObQQCCAhCAxTBEn4U0IL+aOGr6QJSlOklsAACZwT8CJ/RC36vCDR4gSyPwGMBQehjH58OFtCCDgY33SMBEegjHZ8RCC8gCA1fouMLFIEet3MngRgCgtAYdbCK7wW0oM5BFAH5SZRKWAeBEwJ+kE/gxb1VBBq3NlZGYLOAIHQzlQu7C2hBuxObYKOACHQjlMsIRBYQhEauzuG1iUAP07mRQCgBQWiocqy8GC3oytUPtHfJSaBiWAqBcwJ+nM/5hbtbBBquJBZE4KiAIPSonPsaC2hBG4Ma7piACPSYm7sIBBQQhAYsypkliUDP6LmXQDQBQWi0iqy5Hi3omnWPtWuZSax6WA2B0wJ+qE8TRhlABBqlEtZBoJGAILQRpGFOCWhBT/G5uYmACLQJo0EIxBEQhMapxcmViEBPArqdQEABQWjAoqy2JC3oahUPt19pSbiSWBCBFgJ+tFsoTh5DBDq5AKYn0EdAENrH1ag7BLSgO7Bc2kNABNpD1ZgEpgsIQqeX4PwCRKDnDY1AIKaAIDRmXdZZlRZ0nVpH3KmcJGJVrIlAIwE/4I0g5wwjAp3jblYCQwQEoUOYTXJXQAt6l8YHAwREoAOQTUFgloAgdJZ8k3lFoE0YDUIgrIAgNGxpVliYFnSFKgfdo4QkaGEsi0A7AT/m7SyHjiQCHcptMgIzBAShM9TN+VFAC+oozBG4PJiKQOfQm5XAQAFB6EDsllOJQFtqGotAVAFBaNTK1F+XFrR+je2QAAECEwUEoRPxj00tAj3m5i4C6QQEoelKVmbBWtAypcy0ERFopmpZK4FzAoLQc34T7haBTkA3JYFJAoLQSfCrT6sFXf0E2D8BAgR6CwhCews3HF8E2hDTUATiCwhC49eo5Aq1oCXLGnpTItDQ5bE4Ah0EBKEdUHsNKQLtJWtcAlEFBKFRK1N5XVrQytW1NwIECAQREIQGKcTjZYhAH/v4lEBJAUFoybIG35QWNHiBqi1PBFqtovZDYJuAIHSb0+SrRKCTC2B6ApMEBKGT4NedVgu6bu3tnAABAiMFBKEjtQ/MJQI9gOYWAjUEBKE16phoF1rQRMVKv1QRaPoS2gCBEwKC0BN4I24VgY5QNgeBqAKC0KiVqbkuLWjNutoVAQIEAgoIQgMW5bokEWjY0lgYgTECgtAxzma5CmhBnYRBAiLQQdCmIRBYQBAatjgi0LClsTACwwQEocOoTaQFdQYIECBAYJyAIHSc9eaZRKCbqVxIoLKAILRydYPtTQsarCBFlyMCLVpY2yKwW0AQupus/w0i0P7GZiCQQ0AQmqNO+VepBc1fQzsgQIBAKgFBaKhyiUBDlcNiCMwVEITO9V9ndi3oOrWetlMR6DR6ExMIKSAIDVUWEWioclgMgekCgtDpJVhhAVrQFao8eY+//8NfJq/A9AQIBBMQhAYpiAg0SCEsg0AcgUsQ6jdDnHJUXYkWtGplo+zLg2aUSlgHgUgCgtAg1RCBBimEZRAIJeA3Q6hylFyMFrRkWQNtSgQaqBiWQiCSgPdT06sh6JheAgsgEFbA74ewpamxMC1ojToG3YVHzKCFsSwCAQQEodOLIOiYXgILIBBWwO+HsKWpsTAtaI06Bt2FCDRoYSyLQAwBb6km1kHEMRHf1ARSCPgtkaJMSRepBU1auATL9nCZoEiWSGCqgCB0Ir+IYyK+qQmkEPBbIkWZki5SC5q0cAmWLQJNUCRLJDBbwLuqKRUQbkxhNymBdAJ+V6QrWZYFa0GzVCrZOj1WJiuY5RKYJCAInQIv3JjCblIC6QT8rkhXsiwL1oJmqVSydYpAkxXMcgnME/DGarC9WGMwuOkIpBbwGyN1+cIuXgsatjSJF+aBMnHxLJ3AcAFB6GByscZgcNMRSC3gN0bq8oVdvBY0bGkSL0wEmrh4lk5ghoD3VsPUBRrDqE1EoIyA3xtlShlnI1rQOLUoshKPkkUKaRsEBgoIQodhCzSGUZuIQBkBvzfKlDLORrSgcWpRZCUi0CKFtA0CYwW8vRrgLcoYgGwKAiUF/PYoWdaJm9KCTsQvOLWHyIJFtSUCQwS8ZR/ADHkAsikIlBTw26NkWSduSgs6Eb/g1CLQgkW1JQKjBLzD6iotxOjKa3AC5QX8Dilf4pEb1IKO1C4+l8fH4gW2PQKdBbzD6gosxOjKa3AC5QX8Dilf4pEb1IKO1C4+l8fH4gW2PQL9BbzJ6mQsvugEa1gCSwn4TbJUubtuVgvalXehwT04LlRsWyXQTcCbrE604otOsIYlsJSA3yRLlbvrZrWgXXkXGtyD40LFtlUCPQW8z2quK7hoTmpAAssK+H2ybOnbblwL2tZz0dE8Mi5aeNsm0EHA+6zmqIKL5qQGJLCsgN8ny5a+7ca1oG09Fx3NI+OihbdtAn0EvNVq6CqyaIhpKAIELgJ+qzgG5wW0oOcNVx/Bw+LqJ8D+CbQW8FaroajIoiGmoQgQuAj4reIYnBfQgp43XH0ED4urnwD7J9BBwLutJqjCiiaMBiFA4I2A3y1vQPxxr4AWdK+Y6z8T8Jj4GYc/ECDQSMC7rSaQwoomjAYhQOCNgN8tb0D8ca+AFnSvmOs/E/CY+BmHPxAg0E7AG66TlmKKk4BuJ0DggYDfMA9wfPRUQAv6lMgFdwU8IN6l8QEBAqcFvOE6SSimOAnodgIEHgj4DfMAx0dPBbSgT4lccFfAA+JdGh8QINBCwHuuw4oCisN0biRAYKOA3zMboVz2XkAL+t7EdzYJeDTcxOQiAgROCHjPdRhPQHGYzo0ECGwU8HtmI5TL3gtoQd+b+M4mAY+Gm5hcRIDAOYGv/vi3cwOseLdoYsWq2zOBGQJ+28xQrzCnFrRCFcfvQQQ63tyMBNYU8NtmzbrbNQECKQQEoSnKFHCRWtCARUmwJBFogiJZIoESApfnG0HorkpeQgkPhbvEXEyAwBkBQegZvWXv1YIuW/rjGxdKHLdzJwEC+wX8ztlv5g4CBAgMEvDOaxB0rWm0oLXqOWQ3ItAhzCYhQOCjgCB0+1EQgW63ciUBAq0EBKGtJNcZRwu6Tq3b7FQc0cbRKAQI7BHwm2ePlmsJECAwVEAQOpS7xGRa0BJlHLgJEehAbFMRIPBRQBC65SiIQLcouYYAgR4CgtAeqoXH1IIWLm77rQki2psakQCBbQJ+/2xzchUBAgQmCAhCJ6BnnlILmrl6w9cuAh1ObkICBD4KCEIfHwUR6GMfnxIg0FtAENpbuNL4WtBK1ey7FxFEX1+jEyDwTMBvoWdCPidAgMA0gcuLwq+/+Xba9CZOJaAFTVWuqYsVgU7lNzkBAh8EofcOgQj0nozvEyAwUsD/jPNI7dRzaUFTl2/c4oUP46zNRIDAfQG/i+7b+IQAAQKTBf70zbeC0Mk1SDK9FjRJoWYvUwQ6uwLmJ0DgewFB6PtzIAJ9b+I7BAjMEhCEzpLPNa8WNFe95qxW7DDH3awECNwS8BvplorvESBAIISAIDREGcIvQgsavkQBFigCDVAESyBA4KOAIPTNUbiAvPmOPxIgQGCigCB0In6WqbWgWSo1bZ0Ch2n0JiZA4I6A30svMP5XEF4ofEGAQBABQWiQQkRehhY0cnVCrE0EGqIMFkGAwCsBQegLhgj0hcIXBAjEERCExqlFzJVoQWPWJcqqRA1RKmEdBAh8LuC308VDBPr5ofAnAgSiCAhCo1Qi6jq0oFErE2NdItAYdbAKAgTeCghCLyIi0LfHwp8JEAgjIAgNU4qIC9GCRqxKkDUJGYIUwjIIELgpsPjvKBHozVPhmwQIBBEQhAYpRMxlaEFj1iXEqkSgIcpgEQQI3BFYPAgVgd45F75NgEAUAUFolErEW4cWNF5NYqxo8XghRhGsggCBJwLL/qYSgT45GT4mQCCAgCA0QBGCLkELGrQw05clAp1eAgsgQOCpwLJBqAj06dlwAQECEQQEoRGqEHANWtCARZm/pGWDhfn0VkCAwE6BBX9fiUB3nhGXEyAwTUAQOo0+9sRa0Nj1mbQ6EegkeNMSILBbYMEgVAS6+5S4gQCBeQKC0Hn2cWfWgsatzayVLRgpzKI2LwECTQSW+q0lAm1yZgxCgMAwAUHoMOpEE2lBExVr0FJFoIOgTUOAQCOBpYJQEWijU2MYAgTGCQhCx1knmUkLmqRQo5a5VJgwCtU8BAh0F1jkd5cItPtJMgEBAh0EBKEdUHMPqQXNXb/mqxeBNic1IAECAwQWCUJFoAPOkikIEOghIAjtoZp3TC1o3tq1X/kiMUJ7OCMSIBBAoPxvMBFogFNmCQQIHBQQhB6EK3qbFrRoYQ9tSwR6iM1NBAiEECgfhIpAQ5wziyBA4KiAIPSoXMH7tKAFi3psS+UDhGMs7iJAIJFA4d9jItBE59BSCRC4KSAIvcmy5je1oGvW/cauRaA3UHyLAIFUAoWDUBFoqpNosQQI3BYQhN52We+7WtD1an5rx4Wjg1vb9T0CBMoKlPxtJgIte15tjMBiAoLQxQp+d7ta0Ls0S30gAl2q3DZLoLBAySBUBFr4xNoagdUEBKGrVfzmfrWgN1nW+mbJ0GCtEtotAQKvBIr9ThOBvqqtLwkQSC8gCE1fwhYb0IK2UMw8xuVZTQSauYDWToDAW4FiQagI9G2B/ZkAgeQCgtDkBWywfC1oA0RDECBAgEAogTJBqAg01LmyGAIEmggIQpswph5EC5q6fGcXLwI9K+h+AgRCCpQJQkWgIc+XRREgcFZAEHpWMPn9WtDkBbR8AgQIELglUCAIFYHeKqzvESBQQUAQWqGKJ/agBT2Bl/xWEWjyAlo+AQKPBAoEoSLQRwX2GQECyQUEockLeGr5WtBTfG4mQIAAgbACqYNQEWjYc2VhBAg0ERCENmFMOogWNGnhzi5bBHpW0P0ECIQXSB2EikDDny8LJEDgrIAg9Kxg2vu1oGlLZ+EECBAg8EwgaRAqAn1WWJ8TIFBBQBBaoYqH9qAFPcSW/CYRaPICWj4BAlsFkmaJSZe9tSquI0CAwCcBQegnibX+qQVdq952S4AAgdUE0gWhItDVjqj9ElhZQBC6ZvW1oMvVXQS6XMltmMDaAr//w19yAYhAc9XLagkQOCkgCD0JmPFRUzAWAAA3OUlEQVR2LWjGqlkzAQIECOwQSBSEikB31NWlBAiUEBCElijjvk1oQfd5Zb9aBJq9gtZPgMABgURBqAj0QH3dQoBAdgFBaPYK7l2/FnSvmOsJECBAIJ9AiiBUBJrvYFkxAQItBAShLRQzjaEFzVStk2sVgZ4EdDsBAnkFUgShX//527zCVk6AAIEzAoLQM3rp7tWCpiuZBRMgQIDAEYHgQeglAr3kAEc25h4CBAjkFxCE5q/hjh1oQXdgpb5UBJq6fBZPgMB5gRRB6PltGoEAAQJJBQShSQt3YNla0ANobiFAgACBlAJhg9BLBOo/RJTySFk0AQLtBASh7Syjj6QFjV6hJusTgTZhNAgBAtkFBKHZK2j9BAjUFhCE1q7vy+60oC8UviBAgACB+gIBg1ARaP1jZ4cECGwTEIRuc0p/lRY0fQmfbkAE+pTIBQQIrCMgCF2n1nZKgEBGAUFoxqrtXbMWdK+Y6wkQIEAgt0CoIFQEmvswWT0BAq0FBKGtRSOOpwWNWJWGaxKBNsQ0FAECNQS8Yq9RR7sgQKCqgN/SVSv7si8t6AtFzS/8lbOadbUrAgROCFz+27NBnm9EoCfK6FYCBMoKCELLlvbTxrSgnyQq/jPUXzarCGxPBAhkFfDrMWvlrJsAgTUEgrwoXAN7wi61oBPQh00pAh1GbSICBHIJRAhCRaC5zozVEiAwUkAQOlJ7/Fxa0PHmg2b0jn8QtGkIEMgp4JdkzrpZNQECqwgIQgtXWgtatrgi0LKltTECBFoITA9CLwtosQ9jECBAoKaAILRmXX/YlRa0ZnG93a9ZV7siQKCpwMRflZe/hdt0KwYjQIBAQQFBaMGi/rAlLWjNyopAa9bVrggQaCowMQgVgTatpMEIEKgpIAitWdcPH7SgBSs78b1+QU1bIkCgtMCUX5gi0NJnyuYIEGgpIAhtqRlmLC1omFK0W4gItJ2lkQgQKC4wJQgVgRY/VbZHgEA7AUFoO8tAI2lBAxWjyVKmvNFvsnKDECBAYIrA4F+bItApVTYpAQJ5BQSheWt3b+Va0HsyWb8vAs1aOesmQGCSwOAgVAQ6qc6mJUAgq4AgNGvl7q9bC3rfJuEng9/lJxSyZAIECNwQGPbLUwR6Q9+3CBAg8ExAEPpMKNnnWtBkBXu8XBHoYx+fEiBA4KbAsCBUBHrT3zcJECDwWEAQ+tgn3ada0HQlu7vgYW/x767ABwQIEEgrMOBXqAg07emwcAIE5gsIQufXoN0KtKDtLGePJAKdXQHzEyCQWGBAECoCTXw+LJ0AgdkCgtDZFWg5vxa0pebEsQa8v5+4O1MTIEBggEDXX6Qi0AEVNAUBArUFBKFl6qsFLVJKEWiRQtoGAQLzBLoGoSLQeYU1MwECRQQEoUUK+eGDFrRCKbu+ua8AZA8ECBDYJtDp16kIdBu/qwgQIPBEQBD6BCjJx1rQJIV6uEwR6EMeHxIgQGCrQKcgVAS6tQCuI0CAwEMBQehDnjQfakHTlOreQju9s783ne8TIECgtkDzX6oi0NoHxu4IEBgsIAgdDN5jOi1oD9WhY4pAh3KbjACB6gLNg1ARaPUjY38ECAwVEIQO5e4zmRa0j+uoUZu/rR+1cPMQIEAgrkDDX60i0LhltjICBNIKCELTlu7jwrWguSsoAs1dP6snQCCkQMMgVAQassIWRYBAbgFBaO76+S/ipq5fw/f0qR0sngABAs0FmvyCFYE2r4sBCRAgcBUQhKY+CVLQxOUTgSYunqUTIBBboEkQKgKNXWSrI0AgsYAgNHHxpKB5i9fkDX3e7Vs5AQIEeguc/DUrAu1dIOMTILC4gCA07wGQgmatnQg0a+WsmwCBJAIng1ARaJI6WyYBAlkFBKFZKycFTVq5k+/mk+7asgkQIDBY4PAvWxHo4EqZjgCBNQUEoUnrLgVNWTgRaMqyWTQBAtkEDgehItBspbZeAgRSCghCU5ZNCpqxbIffymfcrDUTIEBgrsCBX7ki0LklMzsBAksJCEIzllsKmq9qItB8NbNiAgTSChwIQkWgaatt4QQI5BMQhOarmRQ0Xc0OvI9Pt0cLJkCAQCiBXb94RaChamcxBAisICAITVdlKWiykolAkxXMcgkQyC+wKwgVgeYvuB0QIJBMQBCarGBS0FwF2/UmPtfWrJYAAQKRBTb++hWBRi6itREgUFhAEJqruFLQTPUSgWaqlrUSIFBIYGMQKgItVHNbIUAgk4AgNFO1pKCJqrXxHXyiHVkqAQIEEgk8/SUsAk1UTUslQKCegCA0UU2loGmKJQJNUyoLJUCgosDTIFQEWrHs9kSAQBoBQWiaUklBs5Tq6dv3LBuxTgIECOQVePCrWASat6xWToBAGQFBaJZSSkFzVEoEmqNOVkmAQGmBB0GoCLR05W2OAIEcAoLQHHWSgqao04P37inWb5EECBAoI3DzF7IItEx9bYQAgewCgtAUFZSCJiiTCDRBkSyRAIE1BF4HoV9/8+3l/7/0n1//+dsvv/D/nq5xAuySAIHYAoLQ2PX5uLqfpVjlyou8+cZ9ZRB7J0CAwF6BX/+q5f9j99V//fXXv/rp5UX75YvXK7l2oZenn8sXl//7+iNfEyBAgMAwgcvv53/+jdeCw7yPTPST77777sh97hkl8D//1/8ZNZV5CBC4K9Ckhwn+rws22eNdwZ0fXHq8nXcMvfzyfPPlFz/5xT89f8TRjg4tjMkIECDwg8C//Obnv/CXUwIfBi1o4OJ8+HCJQP0t3NAVsrgWApfOJ3hv1mKXxqgmcDm3wfvkauL2Q4AAgc0Cl9d///ybn2++3IWjBZ6/wR29IvO9EtB/vsLwZTWBl8xN/1mttPZDgAABAgSmCvg3QqfyP59cC/rcaNYV/i3QWfLm7S1waT7/7X/8fe9ZjE+gq8CX//STruMbnEA0geu/7RxtVdZD4J6A/zTuPZkI32/5X2iIsJ9KaxCBVqqmvVwFLp3nr3/5M3/D3HkoIODfMipQRFvYJeA/srWLy8XTBa5BqN/V0wtxcwFS0Jss878pAp1fAytoLXDtP//9P/6vv3nbmtZ4owVe/hr56InNR2CIwCXwvBxysecQbJN0FBCEdsQ9N7QU9Jxft7tFoN1oDTxN4N/+9fu/fHt5rNGCTquBiQkQIPBQ4IfO8yeXB3e/qB86+TCHgCA0bJ2koBFLIwKNWBVrOifw8i9/XhvRc4O5mwABAgTaC1z6z1//8vv/zVt/57Y9rhEnCQhCJ8E/mVYL+gRoysci0CnsJu0ncOk/XzrPy/+OxeUpp99cRiYwQMD/HMsAZFMMFrj2n5dJHe/B8qbrKnANQrtOYfADAlrQA2h9bxGB9vU1+gyBl/7zOvmbP85YkTkJHBfwDuW4nTujCrz0n5cFXv7zLf4t0KiFsq4jAoLQI2qd79GCdgbeP7wIdL+ZO0ILvPwV3JdVCkJfKHyRUUBGlLFq1vxA4HX/eb3MIX/A5aN0AoLQgCXTgsYqigg0Vj2spoXAzczz5jdbzGYMAn0FRKB9fY0+XOB9/3lZgiB0eB1M2FdAENrXd//oWtD9Zj3vEIH21DX2BIH3Eeh1EYLQCcUwZQsB6VALRWNEEbjZf14X56hHKZJ1tBAQhLZQbDmGFrSl5smxRKAnAd0eTeD1f4Xo/doEoe9NfCe4gAg0eIEsb5fA9//jn7/86b1bBKH3ZHw/qYAgNFThtKCByiECDVQMS2kh8OtfPvov3wpCWxgbY6iAXGgot8k6Czw9z08v6LxAwxNoKSAIbal5eiwt6GnCRgOIQBtBGiaKwCUCffr4IgiNUi3r2CAgAt2A5JI0ApfzfMk5Hy/36QWPb/cpgWgCgtA4FXny2yfOQsuvRARavsSrbXBLe3npUT3Wr3Yw8u736SuVvFuz8gUFHvwV3NcafkW/1vB1dgFBaJwKakFD1EIEGqIMFtFO4N5/hej9DFs61fd3+Q6BwQIexAeDm66rwPbzvLFT7bpagxNoKCAIbYh5Zigt6Bm9ZveKQJtRGiiGwPbGUhAao2JW8URABPoEyMepBHY1ltv71VQGFruogCA0SOG1oPMLIQKdXwMraCqwPQK9Tru9X226TIMR2CrgEXyrlOsyCOw9z7v61QwA1ri6gCA0wgnQgs6vggh0fg2soKnA3pZSENqU32DtBUSg7U2NOE/gQEu5t2udtzkzE3guIAh9btT/Ci1of+OHM4hAH/L4MJ/A3gj0usO9XWs+FytOK+DhO23pLPyGwLHzfKBrvTG3bxEIIyAInV4KLejkEohAJxfA9K0FjjWTgtDWdTBeMwERaDNKAwUQONxMHutdA+zYEgjcEBCE3kAZ+y0t6Fjvz2cTgX7u4U/pBY5FoNdtH+td05PZQGwBj92x62N1+wTOnOfDveu+JbqawCgBQego6dvzaEFvu4z5rgh0jLNZhgmcaSMFocPKZKLtAiLQ7VaujC9wso0808HGx7HC1QQEoXMrrgWd5i8CnUZv4j4CZyLQ64rOdLB99mTUpQU8cC9d/nKbP3+eT3aw5URtKL2AIHRiCbWg0/BFoNPoTdxH4HwDKQjtUxmjHhQQgR6Ec1tIgSYN5Pk+NqSNRS0qIAidWHgt6Bx8Eegcd7N2EzgfgV6Xdr6P7bZFA68l4FF7rXpX322r89ykj62ObX+ZBAShs6qlBZ0jLwKd427WbgKtWkdBaLcSGXifgAh0n5erYws0bB1bdbOxwaxuFQFB6KxKa0EnyItAJ6CbsqdAqwj0usZW3WzPHRu7uICH7OIFXmx7bc9zw252sTrYblABQeiUwmhBJ7CLQCegm7KnQNumURDas1bG3iQgAt3E5KIkAs2bxrY9bRJFyywrIAidUlot6Gh2EehocfN1FmgbgV4X27an7Qxg+GoCHq+rVXTt/fQ4z8172rVLZPfzBQSh42ugBR1tLgIdLW6+zgI92kVBaOeiGf6RgAj0kY7Psgl0ahd7dLbZaK23joAgdHwttaBDzUWgQ7lN1l+gRwR6XXWPzra/hxnSC3iwTl9CG3gl0O88d+psX63dlwSGCghCh3J/+KAFHQouAh3KbbL+Av0aRUFo/+qZ4YaACPQGim+lFejaKPbrb9N6W3hiAUHo4OJpQceBi0DHWZtpiEC/CPS6/H797RAek+QT8Eidr2ZWfF+g93nu2t/e35ZPCPQSEIT2kr01rhb0lkqf74lA+7gadZpA7xZREDqttKtOLAJdtfI19z2gRezd5dYsjF1FFRCEjqyMFnSQtgh0ELRpRgn0jkCv++jd5Y7SMk8CAQ/TCYpkiZsFxpznAV3u5h27kEADAUFoA8RtQ2hBtzmdvkoEeprQALEExjSHgtBYVS+9GhFo6fIut7lhzeGYXne5+tnwJAFB6DB4LegIahHoCGVzDBQYE4FeNzSm1x2IZ6qIAh6jI1bFmo4KjDzPX37xk6PLdB+BiAKC0DFV0YKOcBaBjlA2x0CBkW2hIHRgYdedSgS6bu0r7nxYBHrB+8UXf/flFx4mKx6jVfckCB1Teb81ujuLQLsTm2CswMgI9LqzkR3vWEuzhRAYGRmF2LBFlBYYf569wSl9oFbcnCB0QNW1oN2RRaDdiU0wVmB8QygIHVvh5WbzAL1cyUtveGQEeoUUhJY+UCtuThA6oOpa0L7IItC+vkYfLjA+Ar1ucXzfO5zWhHMExkdGc/Zp1jUEZp1n73HWOF8L7VIQ2rvYWtC+wiLQvr5GHy4wqxUUhA4v9SoTenRepdJr7HN8BHp1FYSucb4W2qUgtHextaAdhUWgHXENPUNgVgR63eus7neGtDkHCcyKjAZtzzSLCcw9z97mLHbc6m9XENq1xlrQXryX/lME2gvXuJME5jaBgtBJZa88rYfmytVdb2+zItCrtCB0vRNXfMeC0K4F1oJ25TU4gToCcyPQq+PcHrhOLe3kB4G5kZEiEGgrEOE8e6fTtqZGmy4gCO1XAi1oF1sRaBdWg04ViND+CUKnHoFqk3tcrlbRtfczNwK92gtC1z6DBXcvCO1XVC1oP1sjE6gjECECvWpG6ITr1HXhnUSIjBbmt/XGAnHOszc7jUtruNkCgtBOFdCCtocVgbY3NeJsgTiNnyB09lkoMr8H5SKFtI0fBCJEoNdSCEIdyWICgtBOBdWCdoI1LIE6AnEi0KtpnH64To0X20mcyGgxeNvtIhDtPHu/06XMBp0nIAjtYa8FbawqAm0MargAAtFaPkFogEORewkekXPXz+o/F4gTgV7XJQj9vD7+lF5AENqjhFrQHqrGJFBHIFoEepWN1hXXqfcCO4kWGS1AbosdBWKeZ295Opbc0DMEBKHN1bWgLUlFoC01jRVDIGazJwiNcTpSrsLDccqyWfQdgWgR6HWZgtA75fLtrAKC0OaV04I2JzUggToCMSPQq2/M3rhO7YvuJGZkVBTbtroLRD7P3vV0L78JxgoIQtt6a0GbeYpAm1EaKIxA5DZPEBrmmGRaiMfiTNWy1mcCMSPQ66oFoc+q5/NkAoLQtgXTgrb1NBqBOgKRI9CrcuQOuc45KLSTyJFRIWZbGSQQ/zx74zPoKJhmlIAgtKG0FrQNpgi0jaNRIgnEb/AEoZHOS4K1eCBOUCRL3CwQOQK9bkIQurmYLswhIAhtWCctaENMQxGoIxA/Ar1ax++T65yJ5DuJHxklB7b8oQJZzrP3PkOPhcn6CwhCWxlrQRtIikAbIBoimECW1k4QGuzgxF2OR+G4tbGy/QLxI9DrngSh+2vrjtACgtBW5dGCtpI0DoE6Alki0Kt4lm65zvlIuJMskVFCWkueIJDrPHv7M+GImLKngCC0ia4W9CyjCPSsoPvjCeRq6gSh8U5QuBV5CA5XEgs6IZAlAr1uURB6otRujSggCG1SFS1oE0aDEKgjkCsCvbrn6pnrnJUkO8kVGSVBtcxpAhnPs3dA046LifsICELPu2pBTxmKQE/xuTmkQMZ2ThAa8ihFWZTH3yiVsI4WArki0OuOBaEtKm+MQAKC0PPF0IKeNzQCgToCGSPQq37GzrnOuQm8k4yRUWBOS5sskPc8exM0+eiYvrWAIPSkqBb0OKAI9LidO6MK5G3kBKFRz9TkdXnwnVwA0zcVyBiBXgEEoU0PgsHmCwhCT9ZAC3oS0O0E6gjkjUCvNcjbP9c5Q8F2kjcyCgZpOSEEsp9n74NCHCOLaCcgCD1jqQU9qCcCPQjntsAC2Vs4QWjgwzVnaR5557ibtY9A3gj06iEI7XMujDpNQBB6hl4LekbPvQTqCGSPQK+VyN5F1zlPAXaSPTIKQGgJgQRqnGdvhQIdKUtpISAIPayoBT1CJwI9ouae2AI1mjdBaOxTNnR1HnaHcpuss0D2CPTKIwjtfEwMP1pAEHpYXAt6mM6NBOoI1IhAr/Wo0UvXOVuTdlIjMpqEZ9pwApXOs3dD4Y6XBZ0TEIQe89OC7nYTge4mc0N4gUptmyA0/HEbsUCPuSOUzTFKoEYEetUShI46NeYZJCAIPQatBT3m5i4CdQQqRaDXqlTqqOucs4E7qRQZDWQzVVCBeufZG6KgR82yjgoIQg/IaUH3oYlA93m5OoNAvYZNEJrh3HVcowfcjriGHi5QKQK94glChx8iE/YVEIQe8NWCHkBzC4E6AvUi0Gtt6vXVdc5c553Ui4w6gxk+tEDV8+w9UehjZ3H7BQShe820oDvERKA7sFyaRKBqqyYITXIA2y/To217UyPOE6gXgV4tBaHzzpSZuwgIQveyakH3irmeQB2BqhHotUJVu+s656/DTqpGRh2oDJlAoPZ59rYowRG0xD0CgtA9Wh+0oFu5RKBbpVyXR6B2kyYIzXMSm63UQ20zSgMFEKgagV5pBaEBjpgltBQQhO7S1ILu4nIxgToCtSPQa51q99h1zmKjndSOjBohGSaNwArn2TujNMfRQrcJCEK3OX1/lRZ0k5UIdBOTi1IJrNCeCUJTHcmzi/U4e1bQ/ZEEakegV2lBaKQTZy0NBASh2xG1oNutXEmgjsAKEei1Wit02nXO5YmdrBAZneBxazKBdc6zN0fJjqblPhMQhD4T+vi5FvQ5lAj0uZErsgms05gJQrOdzYPr9SB7EM5tIQVWiECv8ILQkAfQoo4LCEI32mlBN0K5jEAdgXUi0GvN1um365zRnTtZJzLaCePylAKrnWfvj1IeU4u+LyAIvW/z4yda0B8tbn4lAr3J4pupBVZryQShqY/rlsV7hN2i5JosAutEoNeKCEKznEzr3CggCN0CpQV9ovT7P/zlyRU+JpBKYLUI9Fqc1bruVEfy7GJXi4zOerk/tsCa59lbpNin0up2CwhCn5JpQR8RXSLQRx/7jEBCgTWbMUFowqO6dckeXrdKuS6DwGoR6LUmgtAMZ9MadwgIQp9iaUEfEYlAH+n4LKHAmhHotVBr9t4JD+m+Ja8ZGe0zcnUegZXPs3dJec6plW4SEIQ+ZtKC3vURgd6l8UFagZXbMEFo2mP7aOEeWx/p+CybwJoR6LVKgtBsp9V6nwgIQh8DaUHv+ohA79L4IKfAyhHotWIrd+A5z+yTVa8cGT2h8XFCAefZG6WEx9aSHwkIQh/oaEFv44hAb7v4bmYBDZggNPP5vbF2D6w3UHwrrcDKEei1aILQtIfXwm8LCEJvu/zwXS3obRwR6G0X300rIAK9lk4fnvYIv124yOitiD9nFnCer9XzXinzKbb2GwKC0BsoP3xLC3pDRgR6A8W3kgtova4FFIQmP8g/Lt+j6o8WvsovIAK91lAQmv8s28FnAoLQzzhe/UEL+grj05ci0E8S/llEQAT6upC68dcaSb8WGSUtnGXfFHCeX7N4u/Raw9cFBAShN4uoBX3LIgJ9K+LP+QU0Xa9rKAh9rZH0aw+pSQtn2TcFRKCvWQShrzV8XUBAEHqziFrQtywi0Lci/pxcQAT6voB68vcmib4jMkpULEt9KuA8vyfyjum9ie+kFhCEvi+fFvQzExHoZxz+UEJAu/W+jILQ9yaJvuPxNFGxLPWpgAj0PZEg9L2J76QWEIS+L58W9DMTEehnHP6QX0AEeq+GOvN7MsG/LzIKXiDL2yXgPN/j8qbpnozvJxUQhL4pnBb0RxAR6I8WvqoioNG6V0lB6D2Z4N/3YBq8QJa3S0AEeo9LEHpPxveTCghC3xROC/ojiAj0RwtflRAQgT4uo/78sU/AT0VGAYtiSYcFnOfHdN43PfbxaToBQejrkmlBP2qIQF8fC1/XENBiPa6jIPSxT8BPPZIGLIolHRYQgT6mE4Q+9vFpOgFB6OuSaUE/aohAXx8LXxcQEIFuKaIufYtSkGtERkEKYRlNBJznLYzeOm1Rck0iAUHoS7G0oN9TiEBfDoQvyghorraUUhC6RSnINR5GgxTCMpoIiEC3MApCtyi5JpGAIPSlWFrQ7ylEoC8Hwhc1BESg2+uoV99uNfFKkdFEfFM3F3Cet5N697TdypUpBASh1zJpQUWgKX5gLXKfgLZqu5cgdLvVxCs9hk7EN3VzARHodlJB6HYrV6YQEIRey6QFFYGm+IG1yB0CItAdWD9cqmPfKzb4epHRYHDTdRVwnvfyegO1V8z1wQUEoZcCrd6C+rdAg/+UWt4BAQ3VXjRB6F6xwdd7AB0MbrquAiLQvbyC0L1irg8uIAi9FGj5FvQPfwl+TC2PwC4BEegurpeL9e0vFNG+EBlFq4j1nBFwno/peQ91zM1dYQUEoUu3oCLQsD+ZFnZYQCt1jE4QesxtwF0ePQcgm2KYgAj0GLUg9Jibu8IKCELXbkFFoGF/NC3skIAI9BDbx5t072f0Ot0rMuoEa9gpAs7zGXZvo87ouTegwOJB6LotqAg04E+jJZ0U0ESdARSEntHrdK+Hzk6whp0iIAI9wy4IPaPn3oACiwehC7egItCAP46WdEJABHoC7+Otevjzhg1HEBk1xDTUdAHn+XwJvJM6b2iEUAIrB6GLtqAi0FA/gRbTRED7dJ5REHresOEIHjcbYhpquoAI9HwJBKHnDY0QSmDlIHTVFlQEGupH0GJOC4hATxN+HEAn30ry5Dgio5OAbg8l4Dy3Koc3U60kjRNEYNkgdMUWVAQa5KfOMhoKaJxaYQpCW0meHMeD5klAt4cSEIG2KocgtJWkcYIILBuELtmCikCD/NhZRiMBEWgjyI/D6Ofbeh4YTWR0AM0tYQWc57al8X6qrafRpgusGYQu14KKQKf/pFlAcwEtU1tSQWhbzwOjecQ8gOaWsAIi0LalEYS29TTadIE1g9D1WlAR6PQfNQtoKiACbcr5cTBdfQ/VjWOKjDZCuSyFgPPco0zeUvVQNeZEgQWD0LVaUBHoxJ8uU3cS0Cz1gBWE9lDdOKaHy41QLkshIALtUSZBaA9VY04UWDAIXawFFYFO/PEydQcBEWgH1I9D6u372T4YWWT0AMdH6QSc534l866qn62RpwisFoQu1IKKQKf8RJm0q4A2qR+vILSf7YORPVY+wPFROgERaL+SCUL72Rp5isBqQehKLagIdMqPlEm7CYhAu9F+HFiH31v4zfgiozcg/phawHnuXT5vrHoLG3+wwFJB6CotqAh08E+R6QYIaJB6IwtCewu/Gd8D5RsQf0wtIALtXT5BaG/hl/G9T3mh6PrFUkHoMi2oCLTrD43BhwuIQMeQ6/PHOF9m8YgzjNpEAwSc5wHIlym8txrj/NUf/zpmIrOsE4Qu0YKKQP1I1xPQGo2pqSB0jPNlFo+Sw6hNNEBABDoA+TKFIHSAs/cpA5BfplgnCF2jBRWBvhxtX5QQEIGOLKNuf4C2R5wByKYYJuA8D6O+TOTtVW9tEWhv4TfjLxKE1m9BRaBvTrY/FhDQFI0soiB0gLaHyAHIphgmIAIdRn2ZSBDaVdv7lK68NwdfJAhdoAUVgd484L6ZVkAEOr50ev6u5h5xuvIafLCA8zwY/DKdd1j9zEWg/WwfjLxCEFq8BRWBPjjfPkoqoB0aXzhBaFdzj49deQ0+WEAEOhj8Mp0gtJO59ymdYJ8Ou0IQWr0FFYE+PeYuSCUgAp1VLp1/J3mPOJ1gDTtFwHmewn6Z1JusHvIi0B6qG8csH4RWbkFFoBtPucsSCWiEZhVLENpJ3oNjJ1jDThEQgU5hv0wqCG0u731Kc9JdA5YPQku3oCLQXYfdxeEFRKBzS6T/b+7vEac5qQEnCjjPE/EvU3uf1dZfBNrW88BotYPQsi2oCPTAWXdLcAEt0NwCCUKb+3tkbE5qwIkCItCJ+JepBaEN/b1PaYh5eKjaQWjdFlQEevjIuzGkgAg0Qlm8BWhYBY84DTENNV3AeZ5egssCvNVqVQURaCvJk+MUDkJrtqAi0JMn3u0BBTQ/EYoiCG1YBQ+LDTENNV1ABDq9BJcFCEKbVMH7lCaMTQYpHIQWbUFFoE0OvkHCCIhAw5Tig3cBTWrhEacJo0GCCDjPQQpxWYZ3W+drIQI9b9hwhKpBaMEWVATa8NwbKoiAtidIIS7LEIQ2qYXHxCaMBgkiIAINUojLMgShJ2vhfcpJwOa3Vw1CK7agItDmx9+AUwVEoFP5b0zujcANlD3f8oizR8u10QWc52gV8obrTEVEoGf0Ot1bMgit1oKKQDudfsNOFNDwTMS/ObUg9CbL9m96QNxu5cr4AiLQaDUShB6uiPcph+m63lgyCC3XgopAu/4QGHy4gAh0OPmmCb0X2MR06yKPOLdUfC+rgPMcs3Lecx2riwj0mNuAu+oFoaVaUBHogJ8BUwwW0OoMBt84nSB0I9T7yzwavjfxnbwCItCYtROEHqiL9ykH0IbdUi8IrdWCikCH/SiYaIiACHQI88FJvB04AOcR5wCaW8IKOM9hS3NZmLdde6sjAt0rNvj6YkFonRZUBDr4J8F0AwQ0OQOQD08hCD1A56HwAJpbwgqIQMOW5rIwQeiu6nifsotrysXFgtBCLagIdMoPhEm7CYhAu9E2G9g7gl2UHnF2cbk4uIDzHLxAl+V557WxRpfDLALdaDX3skpBaJEWVAQ690fC7D0EtDc9VNuOKQjd5elxcBeXi4MLiECDF+iyPEFo/BpZ4S6BSkFolRZUBLrrCLs4vIAINHyJPi7Qm4KNlRIZbYRyWQoB5zlFmS6L9ObraaVEoE+JQl1QJgit0IKKQEP9bFhMEwGNTRPGAYMIQjciexDcCOWyFAIi0BRluixSEJqlUta5UaBMEFqiBRWBbjy2LksiIAJNUqiPy/S+4Gm9REZPiVyQSMB5TlSsy1K9/3pQLxHoA5ywH9UIQtO3oCLQsD8hFnZYQEtzmG7KjYLQp+weAZ8SuSCRgAg0UbEuSxWE5qqX1T4VqBGE5m9BRaBPj6oLUgmIQFOV6+NivTV4UDWR0QMcH6UTcJ7TleyyYG/BblZNBHqTJcU3CwShuVtQEWiKnxOL3CWgmdnFFeRiQeiDQnj4e4Djo3QCItB0JbssWBCasWrW/ECgQBCavAUVgT44nj5KKCACTVi0j0v27uBm7URGN1l8M6mA85y0cJdlexf2pnYi0Dcg6f6YPQhN3IKKQNP9tFjwUwFtzFOisBcIQm+WxmPfTRbfTCogAk1auMuyBaF5a2flNwWyB6GZW1AR6M0j6ZtpBUSgaUv3ceHeILypoMjoDYg/phZwnlOX77J4b8ReKigCfaFI/UXqIDRrCyoCTf0zY/E3BTQwN1kSfVMQ+qZYHvjegPhjagERaOryXRYvCM1eQet/I5A6CE3bgopA3xxDf0wuIAJNXsCPy/ce4aWOIqMXCl8UEHCeCxTxsgXvxX5A+NlXf/xrjYLaRd4gNGULKgL1I1dPQOtSo6aC0Jc6etR7ofBFAQERaIEiXrYgCK1RR7t4EcgbhOZsQUWgL0fPFyUERKAlyvhxE94mXCBERpWOtL04z5XOwOJvxy6HWQRa6Txf9pI0CM3XgopAi/3k2M5FQNNS6RgIQi/VXPwhr9J5tpfvz/Mvf8qhjIAgtEwpbeQqkDQITdiCikD9zNUSEIHWquf3u1n8nYLIqN6RXnlHznO96i/7jkwEWu8wX3eUMQhN1oKKQKv+8Ky8r8XblZKlXzwIXfbxruRhtikRaL0zIAitV9PFd5QxCM3WgopAF/8hK7d9EWi5kn7c0LJvFkRGVY/0mvtynqvWfcE3ZSLQqof5uq90QWimFlQEWvuHZ83dLduolC/3skHogg925Q/zyhsUgVatviC0amWX3Ve6IDRVCyoCXfYHq+jGRaBFC/txWwu+XxAZ1T7Sq+3Oea5d8aXel4lAax/m6+5yBaFpWlAR6Ao/PKvtccEWZakSLxiELvVIt9RhXnOzItDadReE1q7vgrvLFYTmaUFFoAv+MJXesgi0dHk/bm6ptwwioxWO9Dp7dJ5XqPUib81EoCsc5useEwWhOVpQEeg6Pzzr7HSp5mSdsr7Z6VJB6CIPc29K7I9VBUSgVSv7el+C0Ncavi4gkCgITdKCikAL/FjYwisBEegrjOJfLvKuQWRU/Bwvtj3neZ2Cl393JgJd5zBfd5olCE3QgopAV/vhWWG/i7QlK5Ty6R4XCULLP8Y9LbQLKgmIQCtV8/FeLkGoNw6PiXyaSyBLEJqhBRWB5jr7VvtMQAT6TKja5+XfOHiAq3Zk196P87xa/Qu/cRCBrnaYr/tNEYRGb0FFoGv+8NTedfmGpHb5DuyufBAqAj1wKtwSVqBwQxLWfPrCvHeYXgILaCiQIggN34KKQBseSUMFEBCBBijChCUUfu/g0W3CeTJlNwHnuRtt6IFLvncQgYY+c50XFz8IDd2CikA7n0/DTxAo3IpM0MwzZeEgVASa5xha6XOBkq3I82274sMHbx+cgkoC8YPQ2C2oCLTST4O9fPggAl35FJR8++ChbeUjXW/vznO9mm7fUbG3DyLQ7aWvemXwIDRuCyoCrfojsfK+SjYhKxd0195LBqEi0F1nwMXBBYo1IcG1Ay7PO4iARbGkwwLBg9DALagI9PChc2NIARFoyLIMXVSxdxAe14aeHpN1FnCeOwMnGL7MOwgRaILTNmSJkYPQoC2oCHTIyTQJAQJDBYoFoSLQoafHZJ0FyrQfnZ2KD+9NRPECL7a9yEFo1BZUBLrYD0n57V4i0GIJWPmSddpgmWPgQa3TCTHsFAHneQp7wEkLvIkQgQY8VxOXFDYIjdiCikAnnlRTEyDQVaBMECoC7XpODD5YoEDjMVis8HTeRxQu7oJbCxuEhmxBRaAL/oiU3rIItHR5d2+uQBDqEW131d0QWMB5DlycCUtL/T5CBDrhxISfMmYQGq4FFYGGP8kWSIDAKYECQagI9NQJcHMwgdQtRzDLIsvxVqJIIW3jB4GYQWi8FlQE6gemloAItFY92+wmdRDq4azNITBKDAHnOUYdYq0i6VsJEWisYxRpNQGD0FgtqAg00nG1FgIEegmkDkJFoL2OhXFnCCRtNmZQrTXnv/zm52tt2G5LCwQMQoO1oCLQ0j8AC25OBLpg0TduOWkQKjLaWF+XpRBwnlOUacoif/HF3335RayH5McOItDHPj6NFoQG+ukSgfrxIEBgHYGkQagIdJ0jusJORaArVPnwHv26O0znxoAC0YLQSC2oCDTggbWkEwIi0BN4S9yaLggVGS1xLpfZpPO8TKkPbjRRECoCPVjjxW4LFYRGaUFFoIv9FNguAQIf0gWhMgGntpKACLRSNTvtxS+9TrCGnSIQKggN04KKQKccRpN2ExCBdqMtNXCiIFRkVOrkLb8Z53n5I7AJIEUQKgLdVEsX/SAQJwgN0YKKQP1cECCwpkCiIFQasOYRrbprEWjVyjbfl199zUkNOFEgThAaowUVgU48jKbuICAC7YBadsgUQajIqOz5W3JjzvOSZT+46eBBqAj0YF0Xvi1IEDq/BRWBLvxTYOsECOT4N0LlAE5qJQERaKVqDtiLX4ADkE0xTCBIEBqgBRWBDjt0JhoiIAIdwlxqkuBBqMio1GlbfjPO8/JHYDdA2CBUBLq7lm74QSBCEDq5BRWB+lkgQIDA5RV75MdiCYAjWklABFqpmsP24tfgMGoTDRCIEITObkFFoAMOmikGCohAB2KXmipsEBq5Ny51AmxmiIDzPIS54CQBg1CHueA5G7il6UHozBZUBDrwpJmKAIHQAmGDUO/+Q58bi9spIALdCebyHwUC/jL86o9//XF9viKwR2B6EDq1BRWB7jkrro0vIAKNX6PIK/zdb/8h2vK8ZY9WEes5I+A8n9Fzb6gg1GF2IM8LzA1Cp7WgItDzR8cIBAgUE7i8xQi1o4Bv/UP5WEwuARFornoFXG2oX4ki0IAnJNeS5gah81pQEWiuc2q1zwREoM+EfP5cINS/Eeot+/OCuSKPgPOcp1ZxVxokCHWY4x6RbCubGITOaUFFoNmOqPUSIDBIIE4QGup9/yB909QVEIHWre3QnQX5xSgCHVr1upNNDEIntaAi0Lqnec2diUDXrHuPXQcJQr1l71FcY84ScJ5nydebd3oQ6jDXO1RzdzQrCJ3QgopA5x41sxMgEFwgQhAa5E1/8EpZXhYBEWiWSqVY5/RfjyLQFOckyyJnBaEzWlARaJZTaZ3bBESg25xctVVgehDqLfvWUrkug4DznKFKmdY4MQh1mDMdlDxrnRKEjm5BRaB5DqSVEiAwTWBuEDr9Hf80dxNXFBCBVqzq5D3N+iX55Rc/EYFOrn3F6acEocNbUBFoxbO78p5EoCtXv9/eL0HorLfds+bth2nklQWc55Wr32/vlyB0/NG6zPinb77rtykjrywwPggd2oKKQFc+3PZOgMAugVl/HXfW2/1dOC4msFFABLoRymV7BcYfrcuMItC9ZXL9RoHxQejYFlQEuvEguCyJgAg0SaFSLvPSCk55y54Sy6IJ3BIY/xN0axW+V1Zg5AG7zPXVf/2tLKWNBRAYHISOa0FFoAFOlyUQIJBJYHwQKgLNdD6s9ZnA+Jzq2Yp8Xkpg5AETgZY6OiE3MzgIHdiCikBDHjiLOiwgAj1M58aNAoOD0JFv9DcKuIzAYQHn+TCdG7cLjDlmItDtFXHlGYGRQeigFlQEeuZAuJcAgWUFRgahItBlj1nJjY9MqEoC2tQWgTHHTAS6pRauOS8wMggd1YKKQM+fCyNEEhCBRqpG5bUMC0LHvMuvXCp7iyTgPEeqRvG1/Mtvft51hyLQrrwGfyMwLAgd0YKKQN9U1x8JECCwXWBMECoC3V4RV8YXGJNNxXewwgECl/+Bli+/6Pg4LQIdUERTvAgMC0I7/sy8bOb3ItAXC1+UEBCBlihjmk0MCEJFRmlOg4VuEHCeNyC5pKVAv1d4ItCWdTLWNoExQWj3FlQEuq3criJAgMBdgd5BaL/np7tb8gGBbgIi0G60Br4t0C8IFYHeFvfdngJjgtD+LagItOcpMfZ4ARHoeHMzdg1CRUYOWCUB57lSNRPtpceLPBFoogNQbKkDgtC+LagItNiJtB0CBGYJ9AtCezw5zVIyLwERqDMwRaBHECoCnVJKk14EBgShnVtQEaiDXEtABFqrnpl20ykIFRllOgTW+kzAeX4m5POOAm1f54lAO5bK0BsEegehHVtQEeiG+rqEAAECWwV6BKFtn5m27sR1BPoIiED7uBp1k0DbIFQEugndRd0EegehPVtQEWi3Y2HgKQIi0CnsJn0RaB6EioxebH1RQMB5LlDE7Fto9VJPBJr9JNRYf9cgtFcLKgKtcfjsggCBUAJtg9BWT0uhiCxmWQER6LKlj7PxVkGoCDROTVdeSdcgtFsLKgJd+cxW3LsItGJV8+3p0jRejmKTdYuMmjAaJIiA8xykEJZx/tWeCNQpiiPQLwjt0oKKQOMcHSshQKCYQKsg9PxzUjFY20ktIAJNXb5Kiz8fhIpAK52H7HvpF4T2aUFFoNlPnPV/LiAC/dzDnyYL/O63/3hyBSKjk4BuDyXgPIcqh8WcecEnAnV+ogl0CkLbt6Ai0GhHx3oIECgmcHm+OfnMfeYJqRim7RQQEIEWKGKlLZwJQkWglU5Cjb10CkI7tKAi0Bonzi4+CYhAP0n4ZyCBM38d92T7GkjBUgh8+OA8OwUBBY695hOBBiylJV0EegShjVtQEaiTSoAAgQECZ4LQY89GAzZlCgIHBESgB9Dc0lvgWBAqAu1dF+MfE+gRhLZuQUWgx2rrrqgCl1eSZ+KmqNuyrgoCx06myKhC7e3hk4Dz/EnCP8MJ/PNvfr5rTSLQXVwuHizQPAht2YKKQAefBtMNEJAXDUA2xTGBY0GoI31M210xBUSgMetiVVeBXa9IRKCOTWSB5kFo0xZUBBr57FjbIYFjQdOhqdxEYLfA7377D7vu2fU8tGtkFxMYL+A8jzc34y6B7a9IRKC7YF08RaBtENqsBRWBTjkNJu0qcPkPEXUd3+AEzgvsOqUi0PPgRogjsP35Ps6arWQ1gY0vSkSgqx2MjPttG4S2a0FFoBlPkzU/FBCBPuTxYQiByynd+ojzq5+FWLFFEGghsPHYt5jKGASOC2x5USICPe7rzrECDYPQNi2oCHTsATDbCIFd4dKIBZmDwB2Bje9KRKB3/Hw7pcCWJ/uUG7PocgJPX5eIQMvVvOyGGgahjVpQEWjZw7buxjY+1q8LZOdhBLb8d4mePgOF2Y2FEHgu4Dw/N3JFGIFLh/nlF3eft0WgYQplIZsEWgWhd38kNq3ih4tEoNutXJlFQASapVLWeRV4+sZEBOqoVBIQgVaq5gp7efAbWAS6wgGotMdWQWiLFlQEWulk2cuHD5dXkk8f6DkRCCXwOAgVGYUqlsWcFHCeTwK6fbzAL774u5tBqAh0fC3MeF6gSRB6tgUVgZ4vpBGiCTx4WxltqdZD4EXgwXsTR/pFyRcFBESgBYq44BZu/h52mBc8CQW23CQIPd2CikALHCVbeCVw+Su4Dx7lX13oSwKxBO4FoSKjWHWymnMCzvM5P3dPE3gfhF4j0K/++NdpazIxgaMC54PQUy2oCPRo4dwXV0D/Gbc2VvZM4He//Yf3l9x89f7+Mt8hkEJAapSiTBZ5U+DNb2OH+aaSb6YQOB+EnmtBRaApjolFbhbwXyHaTOXCoAJvzrDIKGidLOuQgPN8iM1NUQReB6Ei0ChVsY6jAieD0OMtqAj0aMncF1TAX8ENWhjL2iNwifFfHtMvX7x56b5nJNcSiCXw/Xn+5U9jrclqCOwUePmd7DDvlHN5OIFLEHpmTSdaUBHoGXj3BhPQfwYriOUcF7j+ZfLLkX551jk+ljsJhBHwyB6mFBZyXOAahIpAjwu6M5LAV//1t8PLOdiCikAPi7sxoID+M2BRLOmwwKXz/N1v//ElCz08jhsJxBH4l9/8PM5irITAGYHLr2jvU84AujeOwNd/Ph6E/uS7777bu5PL3/399//4v3vvcj2BgAKXx/Qf/uKiv9wVsDiWdErgf//nf5/8SzKnpnczgUYCl/81xX/WfzbCNEwQga+/+fZP37x9/N77NO83fJBqLr6My/vBS7Z/AOFIC3qJQH/vb+EewHZLJAHNZ6RqWEsXgcvfkPGf++8ia9AhApfm85IXHXu4GbJAkxBIJnBpfXet+H2fvOv2Bxfv7bcfDHXzI/35TZYe3zz8lnB3C3qJQL/6L/8TRj2KuPqYJ//LWo/5rv9S3K9/+bPrZdc/Pr7FpwTKCOx97Ciz8dQb6ffwF5zlyy9+clmhzjN4mSyPAAECZwR2t6BnJnMvAQIECBAgQIAAAQIECKwscOQv767sZe8ECBAgQIAAAQIECBAgcFhAC3qYzo0ECBAgQIAAAQIECBAgsE9AC7rPy9UECBAgQIAAAQIECBAgcFhAC3qYzo0ECBAgQIAAAQIECBAgsE9AC7rPy9UECBAgQIAAAQIECBAgcFhAC3qYzo0ECBAgQIAAAQIECBAgsE/g/wcWXjkcBuR06wAAAABJRU5ErkJggg==;" vertex="1" parent="1">
          <mxGeometry x="109" y="247" width="31.7" height="19" as="geometry" />
        </mxCell>
        <mxCell id="Md7xWljdAO7b6Q15bc3s-2" value="&lt;b&gt;&lt;font style=&quot;font-size: 14px;&quot;&gt;WisdomChat&lt;/font&gt;&lt;/b&gt;" style="text;html=1;align=center;verticalAlign=middle;resizable=0;points=[];autosize=1;strokeColor=none;fillColor=none;" vertex="1" parent="1">
          <mxGeometry x="131" y="242" width="103" height="29" as="geometry" />
        </mxCell>
      </root>
    </mxGraphModel>
  </diagram>
</mxfile>
